<?xml version="1.0" standalone="no"?>
<!DOCTYPE svg PUBLIC "-//W3C//DTD SVG 20010904//EN"
 "http://www.w3.org/TR/2001/REC-SVG-20010904/DTD/svg10.dtd">
<svg version="1.0" xmlns="http://www.w3.org/2000/svg"
 width="260.000000pt" height="260.000000pt" viewBox="0 0 260.000000 260.000000"
 preserveAspectRatio="xMidYMid meet">
<metadata>
Created by potrace 1.14, written by Peter Selinger 2001-2017
</metadata>

<rect fill="#dc5c15" width="260pt" height="260pt" />

<g transform="translate(0.000000,260.000000) scale(0.100000,-0.100000)"
fill="#ffffff" stroke="none">
<path d="M1291 2592 c-1 -7 -13 -39 -27 -70 -15 -31 -34 -75 -44 -97 -10 -22
-29 -65 -43 -95 -54 -118 -180 -397 -297 -655 -67 -148 -132 -292 -145 -320
-12 -27 -64 -142 -115 -255 -51 -113 -103 -230 -117 -260 -69 -152 -366 -807
-370 -817 -4 -9 59 -12 268 -12 l272 -1 31 34 c17 18 40 55 50 82 11 27 31 76
46 109 15 33 40 89 55 125 15 36 40 92 55 125 15 33 52 116 83 185 30 69 66
150 80 180 13 30 68 154 122 275 53 121 105 238 115 260 10 22 36 81 58 130
126 282 191 436 195 462 4 28 -26 115 -83 238 -13 28 -53 116 -90 197 -67 147
-98 204 -99 180z"/>
<path d="M1702 1416 c-35 -83 -64 -155 -66 -161 -4 -13 -24 -62 -41 -100 -7
-16 -50 -120 -96 -230 -45 -110 -113 -274 -150 -364 -38 -90 -69 -165 -69
-167 0 -2 92 -4 205 -4 128 0 213 -4 228 -11 28 -12 30 -17 83 -144 51 -121
91 -189 123 -208 23 -13 69 -16 289 -17 144 0 262 1 262 3 0 4 -61 139 -137
307 -14 30 -41 91 -61 135 -19 44 -57 127 -83 184 -27 57 -49 105 -49 108 0 4
-10 27 -75 168 -20 44 -63 139 -95 210 -32 72 -74 164 -93 205 -19 41 -47 104
-62 140 -49 111 -43 114 -113 -54z"/>
</g>
</svg>
