<?xml version="1.0" encoding="UTF-8" standalone="no"?>
<!-- Created with Inkscape (http://www.inkscape.org/) -->

<svg
   xmlns:dc="http://purl.org/dc/elements/1.1/"
   xmlns:cc="http://creativecommons.org/ns#"
   xmlns:rdf="http://www.w3.org/1999/02/22-rdf-syntax-ns#"
   xmlns:svg="http://www.w3.org/2000/svg"
   xmlns="http://www.w3.org/2000/svg"
   xmlns:sodipodi="http://sodipodi.sourceforge.net/DTD/sodipodi-0.dtd"
   xmlns:inkscape="http://www.inkscape.org/namespaces/inkscape"
   width="18.358791"
   height="18.358999"
   id="svg3433"
   version="1.1"
   inkscape:version="0.92.4 (5da689c313, 2019-01-14)"
   sodipodi:docname="AD06.svg"
   inkscape:export-filename="C:\Users\evan\source\repos\Geneagrab\GeneaGrab\Assets\Providers\AD06.png"
   inkscape:export-xdpi="2614.5215"
   inkscape:export-ydpi="2614.5215">
  <defs
     id="defs3435">
    <clipPath
       id="clipPath4251"
       clipPathUnits="userSpaceOnUse">
      <path
         id="path4253"
         d="M 386.44904,14.42476 H 513.99733 V 99.56504 H 386.44904 Z"
         inkscape:connector-curvature="0"
         style="clip-rule:evenodd" />
    </clipPath>
    <clipPath
       id="clipPath4243"
       clipPathUnits="userSpaceOnUse">
      <path
         id="path4245"
         d="m 405.35407,14.17378 h 99.21302 v 85.039 h -99.21302 z"
         inkscape:connector-curvature="0"
         style="clip-rule:evenodd" />
    </clipPath>
    <clipPath
       id="clipPath4227"
       clipPathUnits="userSpaceOnUse">
      <path
         id="path4229"
         d="m 209.76404,14.17378 h 99.21204 v 85.039 h -99.21204 z"
         inkscape:connector-curvature="0"
         style="clip-rule:evenodd" />
    </clipPath>
    <clipPath
       id="clipPath3771"
       clipPathUnits="userSpaceOnUse">
      <path
         id="path3773"
         d="M -14.17293,-14.1732 H 609.44903 V 856.06281 H -14.17293 Z"
         inkscape:connector-curvature="0" />
    </clipPath>
    <clipPath
       id="clipPath3519"
       clipPathUnits="userSpaceOnUse">
      <path
         id="path3521"
         d="m 102.04709,623.62228 c 0,-9.77336 -3.88245,-19.14643 -10.79326,-26.05724 -6.91081,-6.91081 -16.28388,-10.79326 -26.05723,-10.79326 -9.77336,0 -19.14643,3.88245 -26.05724,10.79326 -6.91081,6.91081 -10.79326,16.28388 -10.79326,26.05724 0,9.77336 3.88245,19.14643 10.79326,26.05724 6.91081,6.91081 16.28388,10.79326 26.05724,10.79326 9.77335,0 19.14642,-3.88245 26.05723,-10.79326 6.91081,-6.91081 10.79326,-16.28388 10.79326,-26.05724 z"
         inkscape:connector-curvature="0"
         style="clip-rule:evenodd" />
    </clipPath>
    <clipPath
       id="clipPath3475"
       clipPathUnits="userSpaceOnUse">
      <path
         id="path3477"
         d="m -0.47672,856.0556 609.44899,0.79228 0.9633,-740.999 L 0.48658,115.0566 Z"
         inkscape:connector-curvature="0"
         style="clip-rule:evenodd" />
    </clipPath>
    <clipPath
       id="clipPath3463"
       clipPathUnits="userSpaceOnUse">
      <path
         id="path3465"
         d="M -14.17293,-14.1732 H 609.44903 V 856.06281 H -14.17293 Z"
         inkscape:connector-curvature="0" />
    </clipPath>
    <clipPath
       id="clipPath3455"
       clipPathUnits="userSpaceOnUse">
      <path
         id="path3457"
         d="M 0,0 H 595.27559 V 841.88976 H 0 Z"
         inkscape:connector-curvature="0"
         style="clip-rule:evenodd" />
    </clipPath>
  </defs>
  <sodipodi:namedview
     id="base"
     pagecolor="#ffffff"
     bordercolor="#666666"
     borderopacity="1.0"
     inkscape:pageopacity="0.0"
     inkscape:pageshadow="2"
     inkscape:zoom="11.2"
     inkscape:cx="8.6494351"
     inkscape:cy="2.1936087"
     inkscape:document-units="px"
     inkscape:current-layer="layer1"
     showgrid="false"
     fit-margin-top="1"
     fit-margin-left="1"
     fit-margin-right="1"
     fit-margin-bottom="1"
     inkscape:window-width="1920"
     inkscape:window-height="1017"
     inkscape:window-x="-8"
     inkscape:window-y="-8"
     inkscape:window-maximized="1" />
  <metadata
     id="metadata3438">
    <rdf:RDF>
      <cc:Work
         rdf:about="">
        <dc:format>image/svg+xml</dc:format>
        <dc:type
           rdf:resource="http://purl.org/dc/dcmitype/StillImage" />
        <dc:title />
      </cc:Work>
    </rdf:RDF>
  </metadata>
  <g
     inkscape:label="Calque 1"
     inkscape:groupmode="layer"
     id="layer1"
     transform="translate(-47.801918,-1014.2178)">
    <g
       id="g6514">
      <g
         transform="matrix(0.41622152,0,0,0.41622152,-161.3042,929.20277)"
         id="g6427"
         inkscape:export-xdpi="2934.1648"
         inkscape:export-ydpi="2934.1648">
        <path
           inkscape:connector-curvature="0"
           d="m 526.81293,224.41115 v -0.001 z"
           style="fill:none;stroke:#c5b880;stroke-width:0.28346249;stroke-linecap:butt;stroke-linejoin:bevel;stroke-miterlimit:1;stroke-dasharray:none;stroke-opacity:1"
           id="path3557" />
        <path
           id="path3561"
           style="fill:#a4975f;fill-opacity:1;fill-rule:nonzero;stroke:none"
           d="m 515.40153,218.197 c 0.0129,0.0315 -0.025,0.0315 -0.037,0.0436 -0.0129,0 -0.0259,0.006 -0.0322,-0.006 0.006,-0.0241 0.0388,-0.0678 0.0693,-0.0371 z"
           inkscape:connector-curvature="0" />
        <path
           id="path3565"
           style="fill:#b5a662;fill-opacity:1;fill-rule:nonzero;stroke:none"
           d="m 515.19528,218.43551 c 0,0.025 0,0.0435 -0.0258,0.0564 l -0.0564,-0.013 0.0379,-0.0693 c 0.0125,0.006 0.0314,0.0129 0.0443,0.0258 z"
           inkscape:connector-curvature="0" />
        <path
           id="path3569"
           style="fill:#b5a662;fill-opacity:1;fill-rule:nonzero;stroke:none"
           d="m 515.42084,218.52899 c -0.0379,-0.0125 -0.11275,-0.037 -0.15708,0.0192 l -0.0443,-0.0129 c 0.0192,-0.0999 0.15708,-0.0693 0.20138,-0.006 z"
           inkscape:connector-curvature="0" />
        <path
           id="path3573"
           style="fill:#b5a662;fill-opacity:1;fill-rule:nonzero;stroke:none"
           d="m 515.62709,219.40069 c -0.0435,-0.0178 -0.0934,-0.0805 -0.0564,-0.14983 l 0.0192,-0.0306 c 0.0629,0.0241 0.025,0.11837 0.037,0.18044 z"
           inkscape:connector-curvature="0" />
        <path
           id="path3577"
           style="fill:#b5a662;fill-opacity:1;fill-rule:nonzero;stroke:none"
           d="m 516.65034,219.77779 c 0,0.0757 -0.10075,0.0877 -0.11925,0.14495 -0.0435,-0.0129 -0.006,-0.0693 0.013,-0.0886 0.0306,-0.0306 0.0685,-0.0814 0.10638,-0.0564 z"
           inkscape:connector-curvature="0" />
        <path
           id="path3581"
           style="fill:#b5a662;fill-opacity:1;fill-rule:nonzero;stroke:none"
           d="m 518.70153,210.93321 c 0.0125,0.12524 -0.11275,0.0567 -0.12564,0 z"
           inkscape:connector-curvature="0" />
        <path
           id="path3585"
           style="fill:#b5a662;fill-opacity:1;fill-rule:nonzero;stroke:none"
           d="m 518.61293,211.11488 c -0.0436,0.0379 -0.0685,-0.0186 -0.10637,-0.031 l 0.0258,-0.044 c 0.0241,0.006 0.0685,0.0504 0.0806,0.075 z"
           inkscape:connector-curvature="0" />
        <path
           id="path3589"
           style="fill:#b5a662;fill-opacity:1;fill-rule:nonzero;stroke:none"
           d="m 519.41698,212.51433 c -0.0194,0 -0.0387,0.0435 -0.0572,0.0125 0.006,-0.006 0.0379,-0.0435 0.0572,-0.0125 z"
           inkscape:connector-curvature="0" />
        <path
           id="path3593"
           style="fill:#e22626;fill-opacity:1;fill-rule:nonzero;stroke:none"
           d="m 524.43686,245.22937 c 10.47131,0 18.95973,-8.48743 18.95973,-18.95867 0,-10.47122 -8.48842,-18.96006 -18.95973,-18.96006 -10.47074,0 -18.95958,8.48884 -18.95958,18.96006 0,10.47124 8.48884,18.95867 18.95958,18.95867 z"
           inkscape:connector-curvature="0" />
        <path
           id="path3597"
           style="fill:#e22626;fill-opacity:1;fill-rule:nonzero;stroke:none"
           d="m 505.57323,226.2707 c 0,-10.40225 8.46186,-18.86411 18.86363,-18.86411 10.40176,0 18.86362,8.46186 18.86362,18.86411 0,10.40029 -8.46186,18.86321 -18.86362,18.86321 -10.40177,0 -18.86363,-8.46292 -18.86363,-18.86321 z m -0.19197,0 c 0,10.50621 8.5484,19.05412 19.0556,19.05412 10.50727,0 19.05568,-8.54791 19.05568,-19.05412 0,-10.50761 -8.54841,-19.05618 -19.05568,-19.05618 -10.5072,0 -19.0556,8.54857 -19.0556,19.05618 z"
           inkscape:connector-curvature="0" />
        <path
           id="path3601"
           style="fill:#b5a662;fill-opacity:1;fill-rule:nonzero;stroke:none"
           d="m 524.44733,244.80854 c -10.20129,0 -18.50112,-8.29826 -18.50195,-18.49815 -9.9e-4,-10.20179 8.29736,-18.50203 18.49856,-18.50294 10.20188,-9.1e-4 18.50195,8.29744 18.50294,18.49914 9.9e-4,10.19988 -8.29785,18.50103 -18.49955,18.50195 z m -0.004,-38.1518 c -10.83571,8.2e-4 -19.65034,8.81735 -19.64935,19.65365 9.9e-4,10.8344 8.81694,19.64994 19.65274,19.64994 10.83621,-0.002 19.65134,-8.81934 19.65035,-19.65374 -9.9e-4,-10.8362 -8.81753,-19.65084 -19.65374,-19.64985 z"
           inkscape:connector-curvature="0" />
        <path
           id="path3605"
           style="fill:#b5a662;fill-opacity:1;fill-rule:nonzero;stroke:none"
           d="m 534.71908,216.06653 c -0.64201,-5.11262 -5.00545,-9.06799 -10.29254,-9.06749 -5.28726,4.9e-4 -9.65002,3.9567 -10.29072,9.07037 l -0.006,0.01 c -5.06071,0.6883 -8.96016,5.02804 -8.96016,10.27793 4.1e-4,5.26292 3.92073,9.61067 8.99985,10.28206 l 0.004,-0.007 c 0.70917,5.03993 5.03795,8.91486 10.27175,8.91486 5.23321,0 9.56108,-3.87683 10.27025,-8.91486 l -0.0221,0.007 c 5.08571,-0.66759 9.01173,-5.01715 9.01173,-10.28594 -4.2e-4,-5.25302 -3.90704,-9.59417 -8.97295,-10.27735 l -0.0127,-0.01 z"
           inkscape:connector-curvature="0" />
        <path
           inkscape:connector-curvature="0"
           d="m 517.34234,233.44194 c -0.73805,0.24387 -1.52666,0.37629 -2.34655,0.37629 -4.1198,0 -7.45956,-3.33977 -7.46006,-7.45965 -4.9e-4,-4.1184 3.33886,-7.45818 7.45873,-7.45859 0.83541,0 1.63863,0.13662 2.38805,0.38999 l 0.007,0.008 c -0.27283,-0.77484 -0.42084,-1.60834 -0.42133,-2.4764 0,-4.11939 3.33935,-7.45965 7.45874,-7.45965 4.1194,0 7.45957,3.33877 7.45957,7.45816 0,0.87566 -0.1598,1.70165 -0.43683,2.48217 0.76163,-0.26242 1.57913,-0.40423 2.42912,-0.40465 4.11989,-5e-4 7.45965,3.33927 7.45965,7.45865 9.1e-4,4.11989 -3.33885,7.45958 -7.45816,7.45958 -0.82649,0 -1.59003,-0.13613 -2.33326,-0.38585 0,0 0.35738,1.49027 0.35738,2.2883 0,4.11889 -3.33877,7.45866 -7.45857,7.45866 -4.11989,0.002 -7.45965,-3.33779 -7.45965,-7.45669 -5e-4,-0.7981 0.12432,-1.56402 0.35557,-2.28458 l -0.01,0.004"
           style="fill:#244ba6;fill-opacity:1;fill-rule:nonzero;stroke:none"
           id="path3611" />
        <path
           inkscape:connector-curvature="0"
           d="m 517.37724,219.30275 -5e-4,-9.9e-4 c -0.0255,-0.008 -0.0548,-0.005 -0.0809,-0.0131 0.0261,0.009 0.0554,0.005 0.0814,0.0141 z m -7.66672,1.77391 c -1.41075,1.41125 -2.18758,3.2878 -2.18758,5.2819 5e-4,4.12088 3.35305,7.47195 7.47285,7.47195 0.80281,0 1.59382,-0.12664 2.35026,-0.37629 l -0.007,-0.0246 c -0.75455,0.24956 -1.54275,0.37628 -2.34276,0.37628 -4.1061,0 -7.44677,-3.34076 -7.44728,-7.44736 -4.8e-4,-1.9885 0.77394,-3.85786 2.18007,-5.26391 1.40646,-1.40704 3.27641,-2.18196 5.2659,-2.18196 0.78952,0 1.56163,0.13472 2.30141,0.37596 -0.73416,-0.26441 -1.50859,-0.40145 -2.30141,-0.40145 -1.99618,4.1e-4 -3.87271,0.77764 -5.28396,2.18946 z m 7.24457,-4.2546 c 4.1e-4,0.85148 0.14222,1.68596 0.42165,2.4797 h 10e-4 c -0.25583,-0.79901 -0.39715,-1.63052 -0.39765,-2.4797 0,-4.10611 3.34017,-7.44686 7.44596,-7.44686 4.1061,0 7.44678,3.33976 7.44678,7.44537 0,0.82888 -0.1466,1.66238 -0.43586,2.47789 0.79276,-0.25146 1.60884,-0.38717 2.44094,-0.38766 1.98908,-5e-4 3.85934,0.77401 5.26589,2.18055 1.40654,1.40646 2.18096,3.2769 2.18096,5.2654 5e-4,1.98949 -0.77343,3.85885 -2.18005,5.26589 -1.40646,1.40605 -3.27632,2.18138 -5.26532,2.18138 -0.79572,0 -1.55735,-0.12672 -2.32898,-0.38585 -0.0133,0.0303 0.34031,1.51297 0.34031,2.30059 0,4.10579 -3.34017,7.44645 -7.44578,7.44645 -1.98858,0 -3.85844,-0.77351 -5.26548,-2.17956 -1.40646,-1.40614 -2.18139,-3.27541 -2.18139,-5.2649 -5e-4,-0.77822 0.11913,-1.54506 0.35508,-2.2808 -0.26102,0.72996 -0.38115,1.50067 -0.38065,2.2808 0,1.99609 0.77724,3.87205 2.18905,5.2828 1.41175,1.41091 3.2878,2.18716 5.28339,2.18616 4.1198,0 7.47136,-3.35106 7.47136,-7.47095 0,-0.79051 -0.35409,-2.27601 -0.35787,-2.2911 0.75792,0.27521 1.52236,0.40095 2.32096,0.40095 1.99609,0 3.87206,-0.77731 5.2833,-2.18806 1.41125,-1.41175 2.18815,-3.2887 2.18766,-5.2838 0,-1.99609 -0.77732,-3.87205 -2.18856,-5.28346 -1.41175,-1.41125 -3.28829,-2.18799 -5.28388,-2.18799 -0.8349,5e-4 -1.6538,0.13711 -2.43342,0.40565 0.3064,-0.80181 0.45391,-1.6387 0.45391,-2.47037 0,-4.11939 -3.35214,-7.47096 -7.47235,-7.47096 -4.11989,0 -7.47145,3.35206 -7.47145,7.47244 z"
           style="fill:#244ba6;fill-opacity:1;fill-rule:nonzero;stroke:none"
           id="path3617" />
        <path
           inkscape:connector-curvature="0"
           d="m 525.96063,229.04493 c -0.0297,0.0587 -0.0747,-0.008 -0.11154,0 -0.11153,-0.008 -0.23076,0.0889 -0.26045,0.20056 -0.0965,0.26845 -0.11113,0.57296 -0.0445,0.85478 0.3272,-0.3045 0.85478,-0.43123 1.29352,-0.25154 0.34939,0.14751 0.69878,0.45194 0.75083,0.84719 0.0151,0.30451 -0.16368,0.55795 -0.41613,0.71297 0.17828,0.37256 0.14092,0.87746 -0.0671,1.22735 -0.10411,-0.053 -0.0743,-0.20047 -0.11871,-0.29881 -0.15643,-0.34033 -0.52809,-0.66751 -0.93704,-0.66001 l -0.007,0.008 c 0.52009,0.52758 0.75785,1.16687 1.04057,1.7909 -0.3347,-0.0151 -0.6765,-0.14189 -0.88456,-0.43123 -0.0298,-0.0605 -0.0969,-0.11154 -0.13374,-0.17201 0.0297,0.37249 0.0742,0.8623 -0.0374,1.20459 -0.24535,-0.0738 -0.38675,-0.3347 -0.57255,-0.52 -0.20807,-0.21565 -0.35648,-0.44633 -0.49789,-0.68459 -0.0449,0.0756 -0.0222,0.15691 -0.0222,0.25336 0.0222,0.34229 0,0.69968 0.0667,1.01929 -0.0146,0.26672 -0.0667,0.49739 -0.0297,0.75834 0.0969,0.52007 -0.0818,1.01747 -0.0148,1.52427 -0.052,0.24403 0,0.56364 -0.0894,0.80949 0.0298,0.78854 -0.0666,1.58284 -0.0146,2.36387 0.0889,0.17209 -0.0747,0.35739 0.0369,0.52008 -0.0818,0.23826 0.14891,0.38767 0.0818,0.61842 0.11153,0.20798 0.0372,0.47462 -0.0966,0.6543 -0.14123,0.10404 -0.29732,0.1702 -0.47561,0.20048 -0.15642,-0.1494 -0.40886,-0.0303 -0.49821,-0.26103 -0.23026,-0.20038 -0.12631,-0.49731 -0.052,-0.74316 0.14841,-0.1702 0.0444,-0.45391 0.14841,-0.63921 0.0226,-0.50498 0.0596,-0.94371 0.0671,-1.45803 0.0743,-0.88323 0.12623,-1.74561 0.15609,-2.63058 0.0151,-0.20048 0.045,-0.43883 -0.008,-0.65432 0.0893,-0.69976 0.0969,-1.47327 0.14132,-2.16356 0.0449,-0.0605 0.0597,-0.14932 0.0298,-0.22316 -0.22316,0.57305 -0.43114,1.17439 -0.72096,1.73234 h -0.0818 c -0.0894,-0.40854 -0.26763,-0.82459 -0.15601,-1.29352 l -0.0299,-0.0228 c -0.27514,0.44641 -0.52808,0.92862 -0.85527,1.37486 -0.23026,-0.42364 -0.17821,-1.07027 -0.11855,-1.53739 0.0221,-0.17968 0.052,-0.36506 0.13365,-0.52197 -0.0444,-0.28933 -0.0671,-0.62411 0.0375,-0.89075 l -0.008,-0.0152 c -0.27522,0.35748 -0.57255,0.72815 -0.65439,1.17439 -0.13381,-0.0453 -0.18579,-0.18529 -0.24535,-0.29684 -0.12622,-0.67699 0.156,-1.25762 0.60241,-1.71715 0.28974,-0.25344 0.63154,-0.37256 0.9886,-0.46901 -0.47561,-0.32719 -1.18957,-0.12671 -1.68036,-0.42364 0.41654,-0.54276 1.04865,-0.86229 1.74743,-0.68466 0.0668,-0.11905 0.16352,-0.25146 0.30451,-0.28174 0.27513,0.10411 0.46092,0.40854 0.4983,0.69786 0.0444,0.10404 0.008,0.23827 0.0743,0.3347 0.10404,-0.39327 -0.0743,-0.77905 -0.38635,-1.04766 0.11872,-0.0737 0.36407,-0.0737 0.49788,0 0.11914,0.0737 0.11914,0.20039 0.20089,0.29684 0.1485,-0.33471 0.49789,-0.58716 0.86238,-0.58716 0.23793,0.0227 0.45342,0.18628 0.56496,0.40186 z"
           style="fill:#b5a662;fill-opacity:1;fill-rule:nonzero;stroke:none"
           id="path3623" />
        <path
           id="path3627"
           style="fill:#b5a662;fill-opacity:1;fill-rule:nonzero;stroke:none"
           d="m 514.99679,221.13005 c 0,0 -2.789,1.53656 -0.26713,6.58829 v 1.67078 c 0,0 -0.91855,1.59432 0.26713,2.69684 0,0 1.24394,-0.89455 0.29222,-2.69684 v -1.68787 c 0,0 2.57193,-4.57504 -0.29222,-6.5712 z"
           inkscape:connector-curvature="0" />
        <path
           id="path3631"
           style="fill:#b5a662;fill-opacity:1;fill-rule:nonzero;stroke:none"
           d="m 511.60646,227.87722 c 0,0 -1.25235,-0.35078 -1.05197,-1.87884 0.20048,-1.52807 2.93082,-1.90435 3.63248,0.47561 l 0.60085,1.22726 -0.0251,2.07934 c 0,0 -0.0251,1.37865 -1.0018,1.40323 -0.97721,0.0246 -0.97721,-0.677 -0.97721,-0.677 0,0 2.29243,0.3385 1.328,-2.55402 -0.90205,-2.70518 -3.00639,-1.10254 -2.50527,-0.0756 z"
           inkscape:connector-curvature="0" />
        <path
           id="path3635"
           style="fill:#b5a662;fill-opacity:1;fill-rule:nonzero;stroke:none"
           d="m 518.43299,227.87722 c 0,0 1.25244,-0.35078 1.05197,-1.87884 -0.20048,-1.52807 -2.93082,-1.90435 -3.63239,0.47561 l -0.60143,1.22726 0.0251,2.07934 c 0,0 0.0251,1.37865 1.00229,1.40323 0.9768,0.0246 0.9768,-0.677 0.9768,-0.677 0,0 -2.29209,0.3385 -1.32759,-2.55402 0.90165,-2.70518 3.00597,-1.10254 2.50527,-0.0756 z"
           inkscape:connector-curvature="0" />
        <path
           id="path3639"
           style="fill:#b5a662;fill-opacity:1;fill-rule:nonzero;stroke:none"
           d="m 513.73594,229.47995 h 2.4797 v -0.80091 h -2.4797 z"
           inkscape:connector-curvature="0" />
        <path
           id="path3643"
           style="fill:#b5a662;fill-opacity:1;fill-rule:nonzero;stroke:none"
           d="m 535.46644,225.41494 v -3.89145 h -2.64238 v 3.89145 h -3.30562 v 2.64189 h 3.30562 v 3.89103 h 2.64238 v -3.89103 h 3.30628 v -2.64189 z"
           inkscape:connector-curvature="0" />
        <path
           id="path3647"
           style="fill:#c5b880;fill-opacity:1;fill-rule:evenodd;stroke:none"
           d="m 535.03249,227.57271 5e-4,-0.002 h -0.001 z"
           inkscape:connector-curvature="0" />
        <path
           id="path3651"
           style="fill:#a4975f;fill-opacity:1;fill-rule:nonzero;stroke:none"
           d="m 521.63986,220.27955 c 0.0148,0.0369 -0.0298,0.0369 -0.0445,0.0515 -0.0146,0 -0.0293,0.007 -0.0367,-0.007 0.007,-0.0294 0.0445,-0.0804 0.0812,-0.044 z"
           inkscape:connector-curvature="0" />
        <path
           inkscape:connector-curvature="0"
           d="m 526.13792,217.21731 c 0.0738,0.0435 0.0956,0.13951 0.16219,0.19857 0.15461,-0.0151 -0.0884,-0.21367 0.0515,-0.26523 0.0441,0.0733 0.11022,0.19148 0.19867,0.19898 -0.0516,-0.0888 -0.008,-0.1697 -0.037,-0.26515 0.13249,-0.0663 0.11072,0.1763 0.22094,0.18382 0.0515,-0.10255 -0.044,-0.15403 -0.0663,-0.23538 l 0.044,-0.0293 c 0.0592,-0.008 0.10354,0.0657 0.13282,0.11064 0.0369,0.0292 0.0883,0.0515 0.13233,0.0217 0.008,-0.0954 -0.0586,-0.16929 -0.0955,-0.25063 0.0955,-0.0804 0.13232,0.14759 0.22795,0.052 0.0737,0.0511 0.10303,-0.0813 0.1843,-0.0368 v -0.0294 c -0.0369,-0.0298 -0.096,-0.0298 -0.13993,-0.0151 -0.0369,-0.0218 -0.096,-0.0592 -0.096,-0.10312 0.0667,-0.0879 0.0885,0.052 0.14759,0.0369 0.0661,-0.0586 0.16921,0.0516 0.23537,-0.0369 -0.0146,-0.0146 -0.0146,-0.0586 -0.0515,-0.0445 -0.0293,-0.0217 -0.10306,0 -0.0955,-0.0661 l 0.0147,-0.0143 c 0.0439,0.0143 0.14702,-0.0293 0.17681,0.0587 l 0.0364,-0.0444 c 0.0152,0 0.0374,0 0.0445,0.0151 0.007,-0.0151 0.0369,-0.0294 0.0223,-0.052 h -0.037 c -0.059,0 -0.059,-0.0808 -0.0515,-0.10972 0.0662,0.0662 0.11022,0 0.19907,0 -0.008,-0.0737 -0.10313,-0.0223 -0.13291,-0.0667 -0.007,-0.007 0,-0.0146 0.007,-0.0222 0.0666,0.0222 0.14743,-0.11063 0.1768,0.0152 0.0293,-0.0152 0.0888,0.0218 0.096,-0.0294 l -0.096,-0.052 c -0.044,-0.0511 -0.0879,0.0369 -0.11781,-0.0445 0,-0.0662 0.0738,-0.0141 0.10304,-0.0511 0.008,0.0143 0.0369,0.0223 0.0299,0.037 0.11013,-0.037 0.13991,0.0808 0.22026,-0.0227 l -0.26473,-0.0804 c 0.0587,-0.0445 0.21367,-0.0222 0.21367,-0.11064 l -0.1692,-0.007 c 0.0293,-0.044 0,-0.11023 -0.0299,-0.132 l -0.0292,0.0218 c -0.0148,0.25765 -0.26532,0.3088 -0.39765,0.52289 -0.12532,0.044 -0.19898,0.11724 -0.31671,0.18398 -0.0516,0.0369 -0.007,0.11055 -0.0956,0.0809 -0.0515,-0.0592 -0.0661,-0.14759 -0.0808,-0.21368 0.0733,0.008 0.11763,0.0884 0.19848,0.0661 0.0294,-0.0808 -0.0661,-0.0808 -0.0883,-0.14694 0.0663,-0.0738 0.1475,0.0586 0.25005,0.0151 l 0.0151,-0.0813 c -0.0221,-0.0217 -0.0368,-0.0445 -0.0661,-0.0516 0.0293,-0.18381 0.11014,0.044 0.19859,-0.0146 0.0515,-0.0814 -0.0294,-0.0884 -0.0808,-0.11823 0.0292,-0.0587 0.12482,0 0.1617,-0.051 0,-0.0294 -0.007,-0.0516 -0.0147,-0.0738 l 0.11063,-0.0515 -0.0814,-0.088 c 0.0516,-0.0591 0.13283,0.0512 0.15469,-0.0445 -0.13959,-0.0221 0.052,-0.13282 -0.007,-0.1989 l -0.0445,0.052 -0.0515,-0.0369 -0.0365,0.11773 c -0.32422,0.5077 -0.89826,0.72847 -1.4798,0.64061 l -0.0444,-0.0369 c 0.0444,0 0.096,-0.0152 0.13233,0.007 0.1551,-0.0222 0.30962,0 0.41275,-0.0808 l 0.044,0.0444 c 0.0294,-0.0297 0.0955,-0.11814 0.16929,-0.0667 l 0.044,-0.11063 c 0.0592,-0.0222 0.0813,0.0369 0.13282,0.044 v -0.1325 h 0.1692 l -0.0515,-0.13182 c 0.0809,-0.0591 0.16218,0.11021 0.22827,0 -0.0443,-0.0299 -0.11765,-0.0445 -0.11765,-0.11073 0.0587,-0.0737 0.14703,0.0365 0.1985,-0.0221 l -0.11055,-0.11072 c 0.0591,-0.0737 0.1622,0.0445 0.19908,-0.051 -0.0369,-0.0151 -0.0885,-0.0151 -0.10313,-0.0521 0.0662,-0.0293 0.12531,-0.0662 0.19858,-0.0662 v -0.0293 h -0.14702 c -0.0298,-0.0662 0.0587,-0.0955 0.0809,-0.11772 -0.0147,-0.0298 -0.0147,-0.0515 -0.0516,-0.044 -0.13233,0.21318 -0.346,0.43395 -0.57395,0.55926 -0.12532,0.0884 -0.33148,0.0954 -0.38297,-0.0884 0,-0.037 -0.0146,-0.0738 0.007,-0.0955 l 0.20609,0.13241 c 0.0591,0.0297 0.10312,0 0.13291,-0.0516 0,-0.0667 -0.0516,-0.10305 -0.11064,-0.0667 -0.0223,-0.10303 -0.15461,-0.0217 -0.14701,-0.13241 0.17637,-0.13991 0.27942,0.22885 0.44162,0.0662 l -0.11773,-0.0662 c 0.0146,-0.10262 -0.11781,-0.0738 -0.16219,-0.13991 l 0.0298,-0.0218 c 0.19859,-0.0586 0.1839,0.14751 0.38248,0.14751 0.0738,-0.0959 -0.10304,-0.0368 -0.10304,-0.13282 0.0293,-0.0298 0.0737,-0.007 0.10304,0 0.0369,-0.0298 0.11772,-0.0222 0.11772,-0.0808 -0.0879,0.0218 -0.20608,-0.008 -0.27942,-0.0521 0.0662,-0.0217 0.19147,-0.0288 0.27232,-0.0146 0.0738,-0.0289 0.20618,-0.0884 0.22078,-0.1763 -0.0884,0.0369 -0.16921,0.12482 -0.26515,0.11005 v -0.0439 c 0.12522,-0.008 0.20607,-0.12483 0.26515,-0.19866 -0.0884,-0.0661 -0.14701,0.0587 -0.19908,0.0956 -0.0955,-0.14001 0.27291,-0.18397 0.0667,-0.29411 -0.11774,0.0365 -0.0592,0.16879 -0.1693,0.21276 -0.0592,-0.044 0.0293,-0.10972 0.0365,-0.1617 l -0.0808,0.0294 c -0.0223,-0.0143 -0.007,-0.044 -0.0148,-0.0662 h -0.0221 c 0.0661,0.26515 -0.22795,0.3243 -0.37546,0.44162 -0.0223,-0.0289 -0.007,-0.0956 -0.0662,-0.0734 -0.0222,-0.0667 -0.13241,-0.044 -0.1693,-0.11772 0.10312,-0.052 0.25015,-0.0151 0.28702,-0.0884 l -0.11772,-0.044 c 0.0369,-0.096 0.19147,-0.0223 0.19857,-0.11822 -0.0586,-0.007 -0.0955,0.0223 -0.13241,-0.0294 0.0516,-0.0515 0.13241,-0.0515 0.21376,-0.0515 0.0146,-0.0814 -0.10312,-0.007 -0.13291,-0.0662 l 0.14751,-0.11822 -0.096,-0.0289 c -0.007,-0.0591 0.0591,-0.0369 0.0814,-0.0814 0.0218,-0.0515 -0.0299,-0.059 -0.0663,-0.0515 l -0.33148,0.42694 c -0.0146,-0.007 -0.0444,0.007 -0.0515,-0.0142 -0.0222,-0.0813 0.0663,-0.10354 0.11773,-0.13283 l -0.0515,-0.0662 c 0.0293,-0.0439 0.0808,-0.0298 0.11772,-0.0662 l -0.0516,-0.0667 c 0.0445,-0.0738 0.13249,0.0445 0.15469,-0.051 -0.0147,-0.0662 -0.007,-0.0961 -0.0662,-0.1405 l 0.0293,-0.0217 c 0.0808,-0.0299 0.1692,0.008 0.24296,0.0515 0,-0.0298 0.0445,-0.0586 0.008,-0.0954 -0.0591,-0.0152 -0.1768,0.044 -0.22078,-0.052 0.044,-0.037 0.12483,-0.037 0.1693,-0.0511 -0.0223,-0.0369 -0.096,0 -0.0814,-0.0662 0.0667,-0.0298 0.19149,-0.0152 0.25765,0.0365 0.0223,-0.007 0.007,-0.0365 0.007,-0.0516 0.008,-0.0222 0,-0.0662 -0.0369,-0.0515 v 0.0151 c -0.0737,-0.008 -0.1914,0 -0.26515,-0.0445 0.0813,-0.0884 0.20657,0.0223 0.26515,-0.0884 -0.0146,-0.0152 -0.0146,-0.0587 -0.0515,-0.0445 -0.0222,0.11822 -0.15452,-0.007 -0.22836,0.0293 0.0147,-0.0293 0,-0.0733 0.037,-0.0954 l 0.0813,0.0445 c 0.0662,-0.0294 -0.0152,-0.0592 0,-0.0955 0.0365,0 0.11763,-0.008 0.16161,0.0142 0.008,-0.0294 -0.0146,-0.0435 -0.0292,-0.0662 -0.12533,0 -0.24305,0.0369 -0.33149,0.10313 -0.0146,-0.0293 -0.0369,-0.0591 -0.0223,-0.0955 0.0961,0 0.17696,-0.10304 0.27992,-0.0662 l -0.11014,-0.11823 c 0.0516,-0.0586 0.11773,0 0.17639,0 -0.16921,-0.21317 -0.39006,0.0596 -0.55936,0.0813 -0.0808,-0.0515 0.0738,-0.0955 -0.0146,-0.1471 0.0217,-0.0373 0.0586,-0.0444 0.0884,-0.0666 l -0.0738,-0.0369 c 0.0369,-0.13991 0.15461,0.0369 0.23546,0 -0.0369,-0.0804 -0.13234,-0.0738 -0.19857,-0.11021 0.0733,-0.13993 0.15468,0.044 0.24303,-0.0146 -0.008,-0.0222 -0.0515,-0.0586 -0.0813,-0.0662 l 0.0884,-0.11814 c -0.007,0 -0.0147,0.008 -0.0222,0.0151 l -0.0662,-0.0813 -0.0663,0.11822 c -0.23537,0.0955 -0.24287,0.39707 -0.45613,0.49269 0.0293,-0.10312 -0.0813,-0.1466 -0.0813,-0.23546 0.11064,-0.0738 0.0662,0.14751 0.19899,0.0515 v -0.0289 c -0.0809,0.0143 -0.0221,-0.0965 -0.0883,-0.10305 0.044,-0.052 0.0662,0.0365 0.11772,0.0143 0.0959,-0.044 0,-0.0737 0,-0.14 0.0369,-0.0294 0.0883,0.008 0.13233,0 l 0.0151,-0.0733 c 0.0441,-0.0515 0.1617,-0.0515 0.1471,-0.12524 -0.0662,0 -0.13992,0.0587 -0.19858,0 0.044,-0.11064 0.19107,-0.0586 0.26482,-0.0884 -0.0147,-0.15452 -0.1546,0.0148 -0.25014,-0.044 -0.0223,-0.0954 0.11014,-0.0661 0.16929,-0.10346 -0.008,-0.007 -0.0147,-0.0143 -0.0147,-0.0289 l -0.14751,-0.0151 c 0.008,-0.10312 0.19907,-0.008 0.19139,-0.13233 -0.0515,-0.007 -0.11006,0.0216 -0.13233,-0.037 0.0663,-0.0293 0.12482,-0.13232 0.0885,-0.21367 0.007,0.0596 -0.0516,0.14042 -0.11782,0.11815 0.0294,-0.0813 0.0365,-0.1768 0.0956,-0.25015 l -0.044,0.0143 c -0.0667,-0.0289 0.0217,-0.0733 -0.0516,-0.0809 -0.0297,0.30913 -0.19139,0.57395 -0.31671,0.83919 -0.10296,-0.0808 0.0955,-0.19857 -0.0662,-0.22794 0.0369,-0.10346 0.0955,0.0223 0.13241,-0.0515 -0.0883,-0.0591 0.0516,-0.11055 0.0662,-0.14752 -0.0294,-0.0218 -0.0808,-0.007 -0.0808,-0.0511 0.044,-0.0368 0.0808,-0.10304 0.14708,-0.0813 v -0.0813 c -0.044,0 -0.0808,0.10305 -0.13241,0.0662 0.0591,-0.0804 0.0368,-0.1617 0.0662,-0.24255 l -0.0662,0.0587 c -0.0516,0.22828 -0.21368,0.44204 -0.22835,0.64813 -0.0587,-0.008 -0.11781,0 -0.16171,-0.0369 -0.0591,-0.11815 0.14702,-0.0146 0.0955,-0.14743 -0.044,-0.007 -0.0955,0.0222 -0.11773,-0.0294 0.0661,-0.0586 0.19857,-0.051 0.22077,-0.13233 -0.13241,-0.008 0.0293,-0.0516 0,-0.11822 -0.0516,-0.0142 -0.0808,0.0883 -0.13241,0.0369 l 0.13241,-0.1542 c -0.0294,-0.0146 -0.0884,0.0223 -0.0884,-0.0292 0.0369,-0.0662 0.10304,-0.0228 0.1546,-0.0152 -0.0733,-0.0511 0.008,-0.12482 0.0591,-0.13241 -0.0591,-0.0293 -0.11063,0.0587 -0.16211,0.0294 v -0.0294 c 0.0222,-0.0444 0.0592,-0.0813 0.11821,-0.0661 0.007,-0.0223 -0.0152,-0.0369 -0.0223,-0.0516 -0.27984,0.15462 -0.20609,0.53007 -0.486,0.70687 -0.0587,0.0515 -0.11773,-0.008 -0.16929,0.0658 -0.0369,-0.0516 0.0222,-0.0951 -0.0515,-0.13192 -0.0293,-0.0516 -0.0147,-0.13241 0.0222,-0.1622 0.007,0.096 0.12482,0.11782 0.12482,0.199 0.16219,-0.0596 -0.0369,-0.22127 0.008,-0.30212 0.0808,0.0148 0.10312,0.10312 0.1768,0.11781 -0.008,-0.0147 0.007,-0.0445 -0.0151,-0.0516 0.0151,-0.0146 0.0223,-0.0364 0.0369,-0.0298 -0.0218,-0.0435 -0.13232,-0.088 -0.13232,-0.14652 0.0294,0.007 0.0591,-0.008 0.0662,0.0146 0.0592,0.0223 0.12524,0.0223 0.14,-0.052 -0.0294,-0.0143 -0.10313,-0.0289 -0.0956,-0.0809 0.0516,-0.0218 0.13248,-0.0294 0.14709,-0.0808 -0.044,-0.007 -0.0955,0.0222 -0.12532,-0.0299 0.0223,-0.0732 0.11781,-0.0216 0.17688,-0.0364 -0.0222,-0.0586 -0.0955,-0.0368 -0.14701,-0.0515 0.0364,-0.0662 0.10304,-0.0662 0.1617,-0.0662 -0.007,-0.0521 -0.0738,-0.0223 -0.0955,-0.0591 l 0.0809,-0.0662 c -0.007,-0.0147 -0.0293,-0.0147 -0.037,-0.0147 v -0.0737 l -0.0439,0.008 c -0.1329,0.27935 -0.3238,0.62601 -0.626,0.75084 0.0147,-0.0885 -0.0586,-0.14 -0.0809,-0.19908 -0.0737,-0.0289 -0.0662,0.11055 -0.13241,0.0222 0.24254,-0.12482 0.39723,-0.49311 0.66997,-0.50778 l -0.096,-0.0369 0.0369,-0.0808 -0.16929,0.0516 c 0.0738,-0.0592 0.10304,-0.19857 0.21325,-0.21367 l -0.13241,-0.0516 c 0.0298,-0.0365 0.0808,-0.0298 0.11781,-0.0662 -0.19865,-0.0223 -0.27241,0.24255 -0.34568,0.39048 -0.008,0.11781 -0.11813,0.007 -0.14749,-0.0151 l 0.0369,-0.044 0.0586,0.044 c 0.0299,-0.044 -0.0364,-0.044 -0.0439,-0.0955 0.1692,0.0142 0.007,-0.11764 0.13232,-0.16211 l -0.0364,-0.0218 c 0.0364,-0.0298 0.0516,-0.0737 0.0809,-0.11064 -0.15453,0 -0.15453,0.17689 -0.21375,0.27234 -0.0809,0.13993 -0.24297,0.30921 -0.41227,0.27993 0.11073,-0.0223 -0.0292,-0.0889 0.0516,-0.14 0.0444,-0.0151 0.0292,0.0369 0.0515,0.0587 0.0884,0 0.0222,-0.0737 0.0591,-0.11063 0.0294,-0.0142 0.0515,0.0369 0.0663,0.0449 0.20609,-0.12524 0.12524,-0.44963 0.36828,-0.4936 -0.0444,0 -0.096,0.007 -0.11822,-0.044 l 0.0369,-0.0226 -0.0223,-0.0587 0.13291,-0.0737 -0.0293,-0.0293 c -0.22837,0.11823 -0.28743,0.47083 -0.54508,0.62544 -0.0587,0 -0.10312,0.12531 -0.1617,0.0374 0.0216,-0.0662 -0.0445,-0.13241 0.0146,-0.1692 0.044,0.0217 0.0954,0.0657 0.0954,0.10304 0.0299,-0.11071 0.13283,-0.13241 0.22845,-0.21375 0.007,-0.0662 0.0883,-0.13993 0.0369,-0.19859 0.0146,-0.0226 0.0661,-0.0369 0.0515,-0.0813 -0.12522,0.0884 -0.20607,0.19157 -0.346,0.27993 -0.0884,0.008 -0.037,-0.0884 -0.10312,-0.11823 0.0884,-0.23537 -0.31672,-0.13233 -0.37547,-0.34551 l -0.0292,0.0662 h 0.044 c 0.0808,0.0368 -0.0369,0.0667 0,0.11014 l 0.0661,-0.0142 c 0.0592,0.0662 0.16929,0.14702 0.23553,0.21327 -0.0955,0.0369 -0.18397,-0.0299 -0.28702,-0.0299 -0.11064,-0.0435 -0.16929,-0.1985 -0.30912,-0.16921 l 0.11055,0.0813 c -0.0369,0.0515 -0.096,0.0662 -0.14752,0.0738 0.0298,0.10305 0.11064,-0.008 0.16929,0.0294 l -0.0369,0.0812 c 0.0515,0.0436 0.0813,-0.0226 0.13282,-0.0297 0.0294,0.0364 -0.0369,0.0662 -0.0298,0.11023 0.0813,0.0368 0.0667,-0.0663 0.11823,-0.0663 0.0293,0.0293 0.0146,0.0814 0.0146,0.11822 0.0662,0.007 0.0369,-0.0738 0.0809,-0.096 0.0441,0.0369 0.0147,0.13283 0.0809,0.13283 -0.007,-0.0368 0.008,-0.0813 0.0369,-0.0888 0.0662,0.0443 0.0515,0.11763 0.096,0.16961 -0.14744,0.0441 -0.29454,-0.11764 -0.44204,-0.11764 0.0299,0.0586 0.0738,0.0954 0.0299,0.1617 0.0661,0.0292 0.0955,-0.0738 0.14694,-0.0299 -0.0221,0.0445 -0.0439,0.11112 -0.11007,0.11821 -0.13999,-0.0884 -0.11822,-0.41934 -0.36836,-0.3314 l 0.11782,0.0662 c -0.044,0.0444 -0.13251,0.0293 -0.18398,0.0152 v 0.0292 h 0.0369 c 0.0515,0.0148 0.007,0.0662 0.044,0.0884 l 0.0738,-0.0808 0.0294,0.0289 c -0.0148,0.0662 -0.10313,0.11064 -0.11782,0.16262 0.0884,0.0582 0.10304,-0.12524 0.16929,-0.0298 l -0.0884,0.0955 c 0.0516,0.044 0.096,-0.0879 0.14752,-0.0142 -0.0297,0.0733 -0.15453,0.0511 -0.11055,0.13232 0.0368,-0.0661 0.13232,-0.0292 0.17679,-0.0368 l -0.0813,0.10303 c 0.0444,0.12483 0.10303,-0.0662 0.16969,0 v 0.0294 c -0.0369,0.0879 -0.14751,0.13232 -0.19907,0.0369 -0.13991,-0.14758 -0.25005,-0.34617 -0.37536,-0.46431 l 0.044,0.11814 c -0.0217,0.0369 -0.0808,-0.0293 -0.0662,0.0369 0.0369,0.0369 0.13282,-0.0222 0.13282,0.0587 -0.0444,0.0222 -0.11062,0.008 -0.16211,0.0151 -0.0147,0.12531 0.15461,-0.0293 0.19149,0.0738 -0.0369,0.10304 -0.14,0.0292 -0.19149,0.0586 v 0.0515 c 0.0662,0.0592 0.15461,-0.0515 0.24296,0.0223 -0.0444,0.0369 -0.096,0.044 -0.14751,0.0586 -0.0146,0.0814 0.0814,0 0.096,0.0662 0,0.0294 -0.0591,0.0369 -0.0445,0.0809 0.0591,0.008 0.0885,-0.13191 0.14751,-0.044 l -0.16218,0.1768 c -0.0734,-0.0662 -0.0662,-0.20616 -0.15453,-0.22828 -0.0294,-0.007 -0.0516,0.0146 -0.0441,0.0368 0.19149,0.0732 -0.0662,0.0516 -0.0516,0.1475 0.044,0 0.0956,-0.008 0.11781,0.044 l -0.11781,0.10305 h 0.11781 c 0.0222,0.0587 -0.0294,0.11062 -0.0663,0.11772 l 0.0955,0.0808 -0.0955,0.0813 0.0516,0.0662 c -0.007,0.0146 -0.0147,0.0369 -0.0369,0.0292 0,0.0148 -0.008,0.0445 0.0146,0.0516 0.0445,0.007 0.0592,0.0661 0.0223,0.11006 0.10305,0.10313 0.13241,0.27242 0.25765,0.38297 -0.23545,-0.0662 -0.29452,-0.38297 -0.41225,-0.54467 l -0.0294,0.0369 c -0.0151,0 -0.0444,0.0148 -0.0515,-0.0146 -0.0369,0.0146 -0.0959,0.0222 -0.0959,0.0586 0.0661,-0.0146 0.11773,0.0148 0.1622,0.052 -0.008,0.132 -0.1622,0.0219 -0.19907,0.0951 0.0662,0.008 0.0369,0.0738 0.0146,0.11823 0.0738,0.007 0.11063,-0.11823 0.18447,-0.0662 l -0.17696,0.19858 c 0.0738,0 0.14008,-0.0733 0.21375,-0.0293 l -0.0222,0.0293 c -0.0515,0.0662 -0.15461,0.0662 -0.19156,0.11814 0.14709,0.0662 0.21375,-0.11814 0.32389,-0.0666 l -0.21318,0.19906 c 0.10304,0.007 0.16929,-0.12531 0.26474,-0.10361 0,0.11062 -0.13991,0.1405 -0.16929,0.22843 0.0294,0 0.0809,0.0586 0.0223,0.0889 -0.13993,-0.0152 -0.22844,-0.20666 -0.34609,-0.25103 -0.0369,0.008 -0.10304,-0.0218 -0.11772,0.0298 l 0.0516,0.008 c -0.0222,0.0879 0.11014,0.007 0.13232,0.0661 0,0.0956 -0.13232,0.0294 -0.14701,0.11071 0.0587,-0.008 0.12483,-0.008 0.14701,0.051 -0.0222,0.0223 -0.0369,0.0445 -0.0662,0.0516 0.007,0.0223 -0.007,0.044 0.0147,0.0592 0.0293,0 0.0515,-0.007 0.0662,-0.0294 0.10304,0.044 -0.0516,0.0955 -0.0147,0.14708 0.044,0.007 0.0663,-0.0152 0.0956,-0.0298 v 0.13282 l 0.0883,-0.0218 c 0.0297,0.007 0.0146,0.0364 0.0146,0.0516 -0.0293,0.0662 -0.0515,0.11014 -0.11773,0.14652 -0.044,-0.10303 -0.12482,-0.19808 -0.22786,-0.19808 l 0.0516,0.0516 c -0.0223,0.0365 -0.11822,0.0365 -0.0884,0.0804 l 0.11772,-0.0142 c 0.0222,0.007 0.0662,0.0294 0.0516,0.0662 -0.0146,0.0141 -0.0294,0.0369 -0.0516,0.0293 -0.0444,-0.0152 -0.0883,0.0293 -0.0662,0.0662 0.0733,-0.0217 0.14701,0 0.19857,0.0515 l -0.1471,0.0516 c 0.0808,0.0368 0.17648,0.0954 0.25765,0.0515 0.0218,0.0591 -0.0515,0.0662 -0.0591,0.096 0.0294,0.0218 0.0808,0.007 0.0808,0.0511 0.0369,0.0369 0.0591,-0.0364 0.11072,-0.0141 0.0368,0.0293 0.044,0.0586 0.0222,0.0949 h 0.0439 c 0.0662,-0.0732 0.10312,0.0223 0.1476,0.0668 0.0662,-0.037 0.18388,-0.0223 0.28692,0.0146 -0.26522,0.10312 -0.52997,-0.0591 -0.76592,-0.14702 0,0.0217 0.0445,0.0657 0.0738,0.0657 0.0369,0.0298 -0.007,0.0516 -0.007,0.0814 l 0.15453,0.0667 c -0.0444,0.0365 0.0293,0.0733 -0.008,0.11014 -0.16202,-0.0884 -0.31671,-0.22837 -0.41983,-0.37538 -0.0661,-0.11064 -0.17631,-0.16211 -0.22078,-0.26524 -0.10296,-0.0146 0.008,-0.11055 -0.0809,-0.11055 -0.0369,0.0591 0.0369,0.13233 0.0516,0.16203 -0.0368,0.0148 -0.0955,0.0299 -0.0955,0.0808 0.0147,0.0153 0.0516,-0.008 0.0587,0.0369 h 0.0221 c 0.0294,-0.0216 0,-0.0808 0.0516,-0.0661 0.0369,0.0292 0.0738,0.0813 0.044,0.11764 -0.0733,-0.007 -0.14701,0.0298 -0.1617,0.096 h 0.0293 c 0.0662,-0.0592 0.16929,-0.0592 0.21376,0.0293 -0.0667,0.0147 -0.16978,0.0147 -0.1622,0.10313 0.0516,-0.037 0.11773,-0.0445 0.17689,-0.0152 l -0.0445,0.0591 0.0516,0.0516 c -0.28702,0.16921 -0.24305,-0.30922 -0.49319,-0.29412 0,0.11782 0.19857,0.11022 0.1471,0.22795 -0.0662,-0.11013 -0.25014,-0.008 -0.34568,-0.096 0.0516,0.0884 0.19108,0.0743 0.27242,0.14801 -0.0592,0.10304 -0.19156,-0.0152 -0.20616,0.11731 0.0293,0 0.0586,0.0151 0.0661,-0.007 0.0588,0.10262 0.12532,-0.0591 0.19157,0 -0.0591,0.0293 -0.0515,0.1546 -0.13282,0.11772 -0.0294,0.0147 -0.044,0.0515 -0.0294,0.0662 0.0516,-0.0734 0.1622,-0.0218 0.19908,-0.0956 l 0.0294,0.0294 c -0.0808,0.0587 -0.0808,0.1768 -0.16218,0.21318 0.0959,0.0148 0.11055,-0.12524 0.21367,-0.11005 0.0884,0.12482 -0.13993,0.11763 -0.0809,0.24296 0.13232,-0.0222 0.1546,-0.21376 0.29402,-0.1985 0,0.13992 -0.17629,0.1763 -0.18381,0.33091 l 0.0368,0.0151 c 0.0884,-0.0596 0.17689,-0.16261 0.27993,-0.14751 -0.0814,0.0662 -0.0662,0.19147 -0.1622,0.23545 0.0884,0.0587 0.19148,-0.0737 0.27234,-0.0369 -0.0369,0.0515 -0.0884,0.10363 -0.11014,0.1617 0.0369,0.0228 0.0883,-0.0511 0.13232,-0.0142 0.0369,0.037 -0.007,0.0657 -0.0146,0.10303 0.0884,0.0146 0.14694,-0.0813 0.22828,-0.0374 -0.096,0.0299 -0.0591,0.16979 -0.16219,0.18447 l -0.67749,-0.43452 c -0.0808,-0.0662 -0.25006,0.0152 -0.29404,-0.0738 0.0516,0.1621 0.22796,0.0298 0.29404,0.1621 -0.0879,0.0369 -0.1985,0.0441 -0.27927,0 0.0586,0.12532 0.22779,0.0667 0.33091,0.11774 -0.044,0.11071 -0.18398,0.0662 -0.27942,0.0959 0.0146,0.0365 0.0293,0.0445 0.0661,0.0445 l 0.0148,0.088 0.1768,-0.088 c 0.0662,0.0143 0.0662,-0.13283 0.13233,-0.0445 l -0.14694,0.11782 c 0.10297,0.0662 0.17631,-0.0591 0.26467,-0.037 -0.0369,0.20618 -0.30154,0.0588 -0.3314,0.21377 0.0591,-0.0293 0.13992,-0.0591 0.21367,-0.0293 0.0662,0.007 0.12532,-0.11064 0.18398,-0.052 -0.0516,0.13233 -0.19858,0.11765 -0.27943,0.1768 0.0515,0.0369 0.0879,-0.0223 0.14701,0 0.0955,0.0151 0.15462,-0.1476 0.24305,-0.0662 -0.0591,0.0512 -0.0884,0.14759 -0.17688,0.15469 v 0.0439 h 0.0147 c 0.0884,0 0.20609,-0.12474 0.23595,-0.0293 -0.19907,0.19908 -0.44921,-0.10304 -0.62601,0.0445 l 0.0147,0.007 c 0.0293,0.0885 0.12524,0.0369 0.17687,0.0445 -0.0294,0.0289 -0.0591,0.0808 -0.0294,0.11724 h 0.0146 v -0.0287 c 0.0218,-0.008 0.0369,-0.0374 0.0662,-0.0223 0.0955,0.0223 0.007,0.0884 0.0369,0.13233 0.0733,-0.0146 0.17629,-0.0297 0.24296,0.0147 -0.0151,0.0217 -0.0368,0.0293 -0.0667,0.0217 v 0.0445 c 0.11823,-0.0445 0.1622,0.0663 0.24306,0.10312 -0.33851,-0.007 -0.68459,-0.19106 -0.85388,-0.51537 -0.0146,-0.0365 0.0294,-0.13943 -0.0662,-0.12532 0.0222,0.0369 -0.0515,0.096 0.0222,0.12532 -0.0591,0.11822 0.11773,0.0884 0.0955,0.18397 -0.12523,-0.0223 -0.18397,-0.1471 -0.29452,-0.19866 -0.044,0.11022 0.11765,0.10305 0.13241,0.21376 -0.044,0.11773 -0.13241,0 -0.18398,0 0.0516,0.19148 0.27234,-0.0374 0.38288,0.0658 0.0294,0.0151 0,0.0369 -0.008,0.052 -0.11765,-0.0667 -0.14701,0.11772 -0.24296,0.051 v 0.0445 c 0.0662,0.044 0.11813,-0.0294 0.1768,-0.0445 0.0662,0.0151 0.1475,-0.0293 0.21375,0.0445 -0.0738,0.0369 -0.22844,0.044 -0.19156,0.15461 0.0369,0 0.0587,-0.007 0.0808,-0.0364 0.0884,0.0141 0.18398,-0.0889 0.24305,-0.0151 -0.0955,0.0445 -0.1693,0.16929 -0.27992,0.13234 v 0.0445 c 0.0369,0.008 0.0663,-0.0147 0.0884,-0.0445 0.10305,0.0591 0.16921,-0.0879 0.26524,-0.0369 l -0.18447,0.18439 c 0.15468,0.0298 0.25063,-0.18439 0.39064,-0.11773 -0.0738,0.096 -0.19158,0.13242 -0.22845,0.23547 l 0.0148,0.0146 c 0.16922,0.0521 0.11765,-0.18382 0.27985,-0.16922 0.0439,0.0955 -0.096,0.19149 -0.13241,0.27993 -0.27992,-0.0662 -0.55976,-0.19156 -0.75125,-0.41234 -0.15452,0 -0.12531,-0.1914 -0.18389,-0.27225 v 0.14701 h -0.13233 c 0.0368,0.0662 0.11006,0.0369 0.1617,0.0808 -0.037,0.0662 -0.10313,0.0374 -0.17697,0.0444 v 0.037 c 0.10363,-0.0222 0.22135,0.0293 0.29462,0.0954 -0.044,0.0809 -0.0733,-0.0368 -0.11014,-0.0298 -0.0223,0.0152 -0.008,0.0374 -0.008,0.0521 0.0444,0.0661 0.10296,0.0586 0.16921,0.0959 l -0.0293,0.0804 c 0.0444,0.0662 0.10296,-0.0217 0.14742,0.0294 v 0.0226 c -0.25055,0.27993 -0.22126,-0.31671 -0.50068,-0.22827 -0.0297,-0.007 -0.0662,0.0293 -0.0591,0.0586 0.0369,0.008 0.0516,-0.0293 0.0808,-0.0142 0.0445,0.007 0.0591,0.0582 0.0667,0.088 -0.0521,0.0515 -0.15461,0.0146 -0.18438,0.11021 0.0738,0.0297 0.14759,-0.0587 0.22843,-0.0294 -0.0369,0.0954 -0.16218,0.0954 -0.17696,0.17678 0.19487,-0.16301 0.34478,-0.0445 0.51068,0.0455 l -0.11872,0.0548 c -0.0912,0.0293 -0.1905,0.0808 -0.20748,0.15033 l -0.3314,-0.11815 c -0.12533,-0.0293 -0.16929,-0.22787 -0.33149,-0.13242 0,0.0885 0.12531,-0.007 0.14751,0.0814 -0.0151,0.0143 -0.0297,0.0369 -0.052,0.0369 v 0.0435 c 0.0592,0.0516 0.1551,-0.0661 0.18438,0.0516 -0.0662,0.008 -0.13241,0.0884 -0.16211,0.14751 0.0146,0.0222 0.0369,0.007 0.059,0.007 0,-0.0218 0.037,-0.0369 0.0516,-0.0662 0.0369,-0.0217 0.11014,-0.0435 0.14709,0 l -0.0147,0.0152 c -0.0147,0.044 -0.11014,0.088 -0.0441,0.13243 l 0.11023,-0.0813 0.0147,0.0151 c 0.0445,0.0808 -0.0516,0.13232 -0.0955,0.19099 0.0586,0.0813 0.12531,-0.0587 0.1768,-0.0662 0.0294,0.0152 0.0218,0.0445 0.0218,0.0743 0,0 -0.0141,0.0786 -0.0497,0.0875 -0.035,0.008 -0.0619,0.017 -0.0619,0.017 0,0 0.009,0.005 0.0317,0.0223 0.0217,0.0175 0.0359,0.0288 0.061,0.044 0.025,0.0151 0.009,0.0302 -0.0218,0.0265 -0.0307,-0.005 -0.07,-0.0312 -0.0831,-0.0265 -0.0133,0.004 -0.0351,0.008 -0.0393,0.0217 -0.005,0.0133 -0.0222,0.0175 0.026,0.0397 0.0483,0.0218 0.10073,0.0218 0.10073,0.0218 0,0 0.07,0.004 0.0789,0.0171 0.009,0.0136 0.004,0.0264 0.004,0.0264 l -0.0832,-0.004 c 0,0 -0.0261,0 -0.0392,0.004 -0.0133,0.005 -0.036,0.0426 -0.036,0.0426 l 0.11483,0.006 c 0,0 0.096,-0.004 0.0657,0.0175 -0.0307,0.0222 -0.0705,0.0393 -0.0705,0.0393 l -0.009,0.0529 c 0,0 0,0.0128 -0.0221,0.0435 -0.0219,0.0314 0,0.044 0,0.044 0,0 0.0298,-0.0156 0.0746,-0.0609 0.045,-0.0464 0.0284,-0.061 0.045,-0.0464 0.0166,0.0151 0.0384,0.0464 0.0384,0.0464 0,0 0.0264,0.008 -0.004,0.0302 -0.0308,0.0223 -0.0573,0.0832 -0.10544,0.0965 -0.0482,0.0133 -0.096,0.0133 -0.07,0.0567 0.0266,0.044 0.009,0.018 0.0525,0.0266 0.0439,0.008 0.0572,-0.005 0.0705,0.0174 0.0128,0.0223 0.002,0.0459 0.002,0.0459 -0.0241,0.007 -0.0477,0.0141 -0.0714,0.0179 0.0146,0.0951 0.11071,-0.0226 0.14752,0.0587 -0.0516,0.0444 -0.16212,0.0515 -0.16212,0.14694 0.008,0.0148 0.0292,0.007 0.0445,0.007 0.0368,-0.0729 0.13233,-0.0804 0.21318,-0.088 0.0297,0.11071 -0.12482,0.0737 -0.17639,0.13282 -0.0151,0.0148 -0.0151,0.0657 0.0147,0.0808 0.0955,-0.0444 0.1914,-0.0737 0.30913,-0.0444 0,0.14 -0.22069,0 -0.14743,0.14752 0.0591,-0.0662 0.15453,0.0222 0.21368,-0.0293 0.007,0.0879 -0.096,0.0804 -0.13283,0.12474 0.0274,0.0715 0.0539,0.0317 -0.044,0.0884 -0.3017,-0.0515 -0.52998,-0.31622 -0.67708,-0.58153 -0.0222,-0.0737 0.044,-0.0884 0.0808,-0.13283 -0.0808,0.0152 -0.0884,-0.0808 -0.0808,-0.12532 -0.0813,0.0591 -0.008,0.19907 -0.0813,0.27291 l -0.10312,-0.0294 c -0.0293,0.0809 0.0813,0.051 0.0884,0.10313 l -0.0222,0.0292 c -0.0662,0.044 -0.1546,-0.008 -0.17637,-0.0666 l -0.0222,0.0297 c 0,0.0445 0.044,0.0294 0.0662,0.0662 -0.008,0.0146 0.008,0.0445 -0.0148,0.0515 -0.0293,0 -0.0515,-0.007 -0.0661,-0.0146 0.0808,0.22076 0.22827,-0.0955 0.34601,0.0297 l -0.21369,0.14709 c -0.0808,-0.0293 -0.14,0.0294 -0.17679,0.088 0.0661,-0.0289 0.11764,0.0374 0.17679,-0.0369 0.0809,0.0964 0.13234,-0.0804 0.22829,0 -0.10296,0.0223 -0.10296,0.22135 -0.24296,0.14752 l 0.13241,0.0813 c 0,0.0293 -0.0809,0.0657 -0.0147,0.0879 0.0591,-0.0511 0.11064,-0.11071 0.19149,-0.1471 0.044,0.096 -0.14001,0.12483 -0.0955,0.22844 0.0218,0.0141 0.0364,-0.0153 0.0512,-0.0223 0.0151,-0.0591 0.0959,-0.0591 0.13283,-0.0591 0.0146,0.0954 -0.12533,0.1914 -0.0808,0.22828 l 0.0146,-0.0146 c 0.044,-0.0369 0.13232,-0.0369 0.17638,0 -0.007,0.0737 -0.0441,0.13232 -0.0662,0.19857 l 0.19908,-0.0516 c 0.0292,0.0298 -0.008,0.0592 0,0.096 0.11765,-0.052 0.19091,0.13233 0.27935,0.1839 -0.0884,0.11772 -0.1617,-0.0808 -0.26474,0 -0.0299,0.0591 0.0369,0.044 0.0515,0.0813 -0.0293,0.0288 -0.0591,0.0657 -0.096,0.0657 0,0.0293 0,0.0591 0.0146,0.0813 0.0738,0.0587 0.0445,-0.052 0.10363,-0.0661 0.0955,-0.0808 0.24255,-0.11071 0.3385,-0.0955 -0.0515,0.14651 -0.3314,0.0288 -0.30921,0.24246 0.0369,0.0808 0.14701,0 0.18397,0 -0.0738,0.0734 0.0369,0.12533 -0.037,0.19908 0.0251,0.007 0.0488,0.006 0.0714,0 0,0 0.0279,-0.0156 0.0412,-0.002 0.0133,0.0128 -0.003,0.0166 0.0166,0.0492 0.0194,0.0326 0.0425,0.0227 0.0425,0.0227 0,0 0.0625,-0.0913 0.0724,-0.0261 0.01,0.0658 -0.003,0.0851 -0.003,0.0851 l 0.0359,0.003 0.0218,-0.007 c -0.007,0.0113 -0.0132,0.0236 -0.0184,0.0369 0.008,0 0.0147,0.0146 0.0293,0.008 0.0369,0.044 0.0813,-0.0222 0.10313,-0.0374 0.0146,0.0516 0.0959,0.0667 0.0661,0.13282 0.0667,0.0294 0.0516,-0.0444 0.11071,-0.0515 l 0.0883,0.0883 c -0.30912,0.1471 -0.55216,-0.11814 -0.79521,-0.25055 -0.0809,0.0667 -0.20609,0.0369 -0.3239,0.0808 l 0.0148,0.0374 c 0.10303,0.0511 0.21367,-0.0222 0.32389,-0.0374 -0.037,0.12524 -0.26483,0.0743 -0.33867,0.19907 l -0.0221,-0.0294 c -0.22076,-0.15451 -0.32389,-0.41984 -0.4563,-0.62584 -0.0146,0.0151 -0.0221,0.0368 -0.0369,0.0292 0.0294,0.0592 -0.0222,0.1622 0.0662,0.18448 -0.0147,0.0146 -0.0294,0.0368 -0.0515,0.0292 -0.044,-0.10295 -0.16938,-0.17679 -0.24305,-0.18382 -0.0294,0.10297 0.10296,0.0733 0.14744,0.11774 -0.0146,0.0586 -0.096,-0.007 -0.0814,0.0661 0.008,0.008 0.0148,0.0153 0.0299,0.0153 0.0663,-0.0596 0.1471,0.051 0.15461,0.0804 -0.11064,-0.007 -0.21367,0.0146 -0.30213,-0.0662 v 0.0369 c 0.0222,0.0662 0.10306,0.044 0.15453,0.0662 l -0.0733,0.0521 c 0.0809,0.0662 0.21335,-0.0662 0.27944,0.0146 -0.0809,0.0884 -0.21319,0.044 -0.30914,0.0955 0.0221,0.10312 0.0737,-0.0147 0.14744,0.0223 l -0.0445,0.0808 0.0738,0.0297 c -0.0369,0.0587 -0.11773,0.0663 -0.16219,0.0663 0.0591,0.10297 0.1692,-0.0223 0.23595,0 0.007,0.0586 -0.0738,0.0662 -0.0884,0.10297 0.12524,0.0587 0.16921,-0.19892 0.30162,-0.16922 -0.044,0.0955 -0.1471,0.22037 -0.25014,0.26483 h 0.14702 c 0.0147,0.0586 -0.0809,0.0959 -0.044,0.14742 0.1546,-0.0888 0.10313,-0.27225 0.24305,-0.346 0.0218,0.1617 -0.10305,0.28644 -0.1768,0.42635 l -0.0738,0.0152 c 0.0223,0.0444 0.0813,0.0587 0.11772,0.0511 0.096,-0.13182 0.13291,-0.3234 0.23586,-0.41225 0.037,0.19958 -0.14742,0.36119 -0.1989,0.53048 0.0221,0.0293 0.0515,0.0445 0.0809,0.0445 0.11055,-0.14759 0.11805,-0.33899 0.1989,-0.49359 h 0.0441 c 0.008,0.0737 -0.0147,0.1617 -0.0441,0.23587 0.0148,0.095 -0.0809,0.27942 0.0148,0.33091 0.0146,-0.10305 0.0293,-0.199 0.0444,-0.30213 0.0217,-0.0804 0,-0.22777 0.11782,-0.22777 0.007,0.13232 -0.0813,0.24296 -0.0299,0.37537 0.0146,-0.0218 0.0369,-0.0147 0.0516,-0.0147 -0.0662,-0.13992 0.13282,-0.19148 0.0444,-0.31623 l 0.29453,0.007 c 0.0809,0.007 0.0516,0.12533 0.13241,0.13283 0.0223,-0.0444 -0.0515,-0.0813 0.0147,-0.11821 0.0809,-0.0369 0.0884,0.0587 0.13241,0.0961 -0.1471,0.0368 0.0666,0.13182 -0.0809,0.1687 l -0.0662,-0.0879 c -0.096,0.0444 0.0294,0.13241 -0.0292,0.21375 l -0.1032,-0.16269 c -0.0444,0.052 -0.0297,0.16269 -0.0146,0.21368 l 0.0365,-0.0439 0.0297,0.0297 c -0.0151,0.13241 -0.13282,0.22795 -0.14751,0.36078 0.008,0.0218 0.037,0.0515 0.0663,0.0364 0.0151,-0.0444 -0.0293,-0.0587 -0.0147,-0.10312 0.11064,-0.10296 0.1622,-0.26466 0.25765,-0.3753 0.0223,0.10304 -0.0586,0.19099 -0.0662,0.29452 -0.0369,0.0293 -0.0955,0.0808 -0.0662,0.11765 h 0.0515 c 0.11772,-0.13983 0.18398,-0.32422 0.27992,-0.46373 0.0146,0.0884 -0.0222,0.18397 -0.0662,0.26523 0,0.0662 -0.0591,0.13193 0,0.1834 0.007,0 0.0294,0.008 0.0364,-0.007 0.008,-0.0294 -0.0146,-0.0365 -0.0146,-0.0587 0.14751,-0.10296 0.096,-0.29452 0.1622,-0.43445 0.0955,0.11072 -0.0369,0.26475 0.0294,0.38297 0.0661,0.008 0.0368,-0.0738 0.0661,-0.10304 0.0591,-0.11064 -0.0809,-0.27993 0.0662,-0.3385 0.008,0.0879 0.0369,0.21326 0.0222,0.30921 0.25055,0.007 -0.0369,-0.23595 0.096,-0.37546 0.0441,0.0587 0.0733,0.16929 0.0662,0.24255 h 0.0293 c 0.044,-0.0733 0.0738,-0.19148 0.0222,-0.27943 0.0147,-0.0297 0.044,-0.0737 0.0808,-0.0515 l 0.0147,0.1546 c 0.0737,0.0368 0.0293,-0.0444 0.0809,-0.0662 0.0179,-0.004 0.0349,-0.0113 0.0515,-0.0208 l 0.034,0.0483 c -0.0784,0.0577 -0.173,0.13423 -0.1664,0.22977 0.0884,-0.0511 0.10304,-0.18389 0.22836,-0.14752 0,0.0596 -0.0294,0.13283 -0.0662,0.18439 l -0.0591,-0.0369 c -0.0883,0.0587 -0.1692,0.1546 -0.21318,0.25055 0.0808,-0.008 0.1546,-0.19858 0.27225,-0.16219 l -0.0812,0.25765 c -0.0148,0.0885 -0.16179,0.15469 -0.0662,0.22844 0.0146,-0.0223 0.0369,-0.0369 0.0221,-0.0591 0.0662,-0.0218 0.0808,-0.14759 0.16219,-0.11772 0.0218,0.0737 -0.11055,0.13282 -0.0515,0.1768 0.21318,-0.044 0.0663,-0.3239 0.22795,-0.37538 0.007,0.0591 -0.0218,0.0954 -0.0294,0.14694 0.0146,0.0148 0.0146,0.0587 0.0516,0.0369 0.0369,-0.0884 0.11064,-0.18381 0.0439,-0.27976 0.0814,-0.0733 0.0445,0.11806 0.13291,0.0959 9.1e-4,-0.0246 0.1702,-0.0997 0.17639,-0.12102 l 0.0458,0.0269 c -0.0302,0.0691 0.0601,0.25625 0.0279,0.32192 0.11072,-0.0661 0.1622,-0.23537 0.24305,-0.29452 -0.0222,0.33899 -0.0294,0.73664 -0.25765,0.95692 l -0.0223,-0.1617 -0.1763,0.39063 v -0.25063 c -0.0738,0.0445 -0.0738,0.16928 -0.14751,0.18438 0,-0.13282 0.0516,-0.24303 0.0808,-0.36126 -0.14701,0.12531 -0.24255,0.30929 -0.34567,0.4497 0.25765,0.0364 0.59622,0.0884 0.78771,-0.1329 0.1763,-0.37537 0.1617,-0.8321 0.21319,-1.25854 l 0.0813,-0.11063 0.0218,0.0293 -0.0662,1.00898 0.0444,0.0435 c 0.15469,-0.35268 0.0586,-0.81691 0.14711,-1.19937 l 0.0884,-0.11073 c 0.0369,0.13283 -0.0148,0.25765 0.044,0.36078 l 0.0369,-0.61083 0.11765,0.0364 c -0.007,0.0808 -0.0884,0.14042 -0.0662,0.21367 0.19141,0.007 -0.0369,0.14752 0.0297,0.25765 h 0.0365 c 0,0.44163 0.0298,0.89827 0.22837,1.27373 l 0.0146,-0.008 c -0.0661,-0.36019 -0.0884,-0.72896 -0.13234,-1.09684 l 0.0369,-0.0813 c 0.0516,0.10313 0.007,0.26565 0.0955,0.32439 v -0.0147 c -0.0293,-0.0369 -0.0146,-0.14 0.037,-0.11772 0.0223,0.088 0.0662,0.19099 0.11062,0.26524 0.0217,-0.045 -0.0516,-0.0743 0.0146,-0.0964 l 0.1839,0.16219 c -0.0146,-0.088 -0.13992,-0.1471 -0.0809,-0.24304 l 0.0809,0.0666 c 0.008,-0.0889 -0.12532,-0.14743 -0.0809,-0.23587 l 0.0369,0.037 c 0.10312,-0.0587 -0.11765,-0.14 -0.0737,-0.25064 l 0.0737,0.0227 c 0.0148,-0.0738 -0.13993,-0.11772 -0.0515,-0.19899 -0.0151,-0.008 -0.0151,-0.0299 -0.0369,-0.0218 0,-0.0884 -0.11773,-0.19908 -0.0445,-0.25815 l -0.0884,-0.18398 c 0.0738,-0.0813 0.0592,0.0813 0.11831,0.0813 0.0216,-0.0151 0.0216,-0.0369 0.0364,-0.052 l 0.0297,0.0223 c 0.0662,0.0737 0,0.16212 -0.0297,0.22828 0.0666,0.0369 0.0369,0.13992 0.11055,0.1476 0.0294,-0.0667 -0.008,-0.19958 0.0808,-0.18448 0.0662,0.11773 -0.0146,0.23545 -0.0292,0.35368 0.0737,-0.0228 0.0515,0.0733 0.0954,0.0803 0.0591,-0.10313 -0.0364,-0.23495 0.0884,-0.3163 0.0299,0.12532 0,0.24305 -0.007,0.38247 0.0293,0.0445 0.0221,0.11822 0.0808,0.12582 -0.0369,-0.11064 0,-0.26524 0.0661,-0.34609 0.0223,0.0738 0.037,0.13991 0.0223,0.21367 0.0147,0.0808 -0.0444,0.25014 0.0662,0.28653 0.0885,-0.11023 -0.0662,-0.24256 0.0662,-0.331 0.0515,0.12532 0.0146,0.3239 0.0813,0.44155 0.0364,-0.0515 0.007,-0.13993 0.051,-0.1768 0.0445,0.0223 0.0445,0.0662 0.0445,0.11071 0.007,0.0444 0.0293,0.11055 0.0808,0.11773 0.0298,-0.044 0.008,-0.10313 -0.044,-0.13242 -0.0222,-0.0738 0.0369,-0.11063 0.044,-0.17687 0.0592,0.0369 -0.0217,0.15469 0.0662,0.16219 v -0.14743 c -0.0365,-0.0733 -0.13959,-0.14759 -0.11021,-0.21376 0.0146,-0.0435 -0.0146,-0.11013 -0.0662,-0.1466 0.0217,-0.10295 -0.12524,-0.14743 -0.10313,-0.23595 0.37545,0.0441 0.6109,0.47149 1.00848,0.42702 -0.0515,-0.088 -0.1914,-0.0955 -0.25055,-0.19857 0.3168,0 0.65529,0.0369 0.95741,0.11722 v -0.0511 c -0.19908,-0.0521 -0.36836,-0.18439 -0.54468,-0.27984 -0.16218,0.0444 -0.24303,-0.12532 -0.36076,-0.1476 0.0364,-0.0141 0.0809,-0.0217 0.0955,-0.0662 0.1621,0.10305 0.41934,0.0813 0.57436,0.23588 0.0148,-0.0146 0,-0.0515 0.0218,-0.0666 0.0298,0 0.0591,0 0.0814,0.0151 v -0.0369 c -0.15462,-0.0516 -0.39765,-0.0516 -0.41227,-0.22786 0.0293,0.0142 0.0733,0 0.10306,0.0217 0.1395,0.0738 0.30921,0.0662 0.42693,0.17689 0.0217,-0.0884 0.0955,-0.0369 0.14751,-0.0298 v -0.0223 c -0.0445,-0.0292 -0.0813,-0.0732 -0.14751,-0.0511 -0.0884,-0.052 -0.21376,-0.059 -0.27992,-0.14694 0.1622,-0.0965 0.30162,0.0515 0.4568,0.0217 -0.0521,-0.0591 -0.10313,-0.0959 -0.19157,-0.11822 0.0223,-0.0217 0.044,-0.044 0.0662,-0.0516 0.0809,0.0374 0.20617,0.0151 0.22828,0.11822 0.0218,-0.0369 0.0218,-0.11064 0.0511,-0.11822 -0.007,-0.0515 -0.10303,-0.0217 -0.0879,-0.0954 0.0808,-0.10313 0.1617,0.0294 0.23546,0.0369 -0.0369,-0.0218 -0.0662,-0.13232 0,-0.13232 -0.0293,-0.0662 -0.0662,0 -0.10304,-0.0369 v -0.0294 c 0.0586,-0.052 0.19148,-0.052 0.23545,-0.007 0.0151,-0.0738 -0.0738,-0.0294 -0.0738,-0.0956 0.0228,-0.0222 0.037,-0.052 0.0738,-0.0443 v -0.0218 h -0.0879 v -0.0445 c -0.0813,0 -0.052,0.0954 -0.11823,0.12531 -0.24305,0.12475 -0.45622,0.28694 -0.73606,0.31623 -0.0662,-0.0879 -0.1622,-0.1541 -0.18397,-0.26474 0.10312,0.0218 0.22794,0.12483 0.34609,0.19858 -0.0368,-0.11063 -0.13292,-0.18398 -0.19901,-0.29403 0.0884,-0.0369 0.20618,0.051 0.27985,0.12483 0.0592,-0.0445 0.11014,0.10295 0.16921,0.0369 -0.0808,-0.0738 -0.14693,-0.1693 -0.25005,-0.22795 l 0.0218,-0.0374 c 0.1551,0.0147 0.25815,0.15461 0.39047,0.14758 -0.0884,-0.044 -0.0292,-0.10312 0,-0.1329 -0.0814,-0.0435 -0.20616,-0.0218 -0.25765,-0.11013 l 0.044,-0.0365 c 0.1622,-0.0226 0.23545,0.15419 0.38296,0.0879 -0.0369,-0.007 -0.0955,-0.0222 -0.0884,-0.0737 l 0.0809,-0.044 -0.0293,-0.0297 c -0.0445,-0.007 -0.0738,0.0226 -0.11064,0.0297 -0.0586,0.007 -0.0954,-0.0591 -0.10313,-0.0808 0.0961,-0.008 0.25815,-0.0521 0.3093,0.044 l 0.0227,-0.0294 c -0.0227,-0.0884 -0.10353,-0.1622 -0.18439,-0.1697 0.0146,-0.0662 0.11773,-0.0435 0.16921,-0.0734 0.0662,-0.0221 0.14751,0.11023 0.1617,-0.007 -0.0662,-0.052 -0.13233,-0.0738 -0.21318,-0.0667 v -0.0292 c 0.0515,-0.0738 0.13992,-0.11773 0.22836,-0.0809 -0.0884,-0.13241 0.13984,-0.0959 0.0955,-0.22844 -0.0662,0.0884 -0.1768,0.15462 -0.27233,0.1471 -0.008,-0.0879 0.13241,-0.0954 0.13241,-0.1471 -0.20617,-0.11765 -0.13992,0.28703 -0.30162,0.21319 0.0586,0.0961 -0.0369,0.20616 -0.11072,0.22894 0.0294,-0.11073 -0.0879,-0.11073 -0.11772,-0.16971 -0.0222,0.0369 -0.11764,0.0808 -0.0955,0.13282 l 0.0147,-0.0151 c 0.0738,0.007 0.0955,0.0954 0.12483,0.14743 -0.0733,0.13991 -0.0733,-0.10305 -0.1617,0 -0.0293,-0.0226 -0.0516,-0.052 -0.0444,-0.0954 -0.3093,0.15451 -0.24585,0.0992 -0.23554,-0.0965 -0.0146,-0.0512 -0.0293,-0.11724 -0.0809,-0.13249 -0.12524,0.0662 0.0516,0.16219 -0.0293,0.25814 -0.11814,-0.0151 -0.037,-0.15501 -0.11814,-0.19891 0.0151,-0.0223 0.0591,-0.0223 0.0444,-0.0592 h -0.0809 c 0,-0.0807 -0.19147,-0.051 -0.0812,-0.15404 0.11054,0.0369 0.20608,0.11014 0.3314,0.0733 0,-0.0961 -0.1476,-0.0662 -0.19859,-0.1396 0.0293,-0.0298 0.0661,-0.0595 0.10306,-0.0298 0.0955,0.0808 0.22786,0.0667 0.37537,0.0667 -0.0297,-0.0738 -0.1768,-0.0152 -0.18439,-0.1329 l 0.0369,-0.0298 c 0.0662,0.0888 0.20666,0.0596 0.30971,0.0813 v -0.0218 c -0.0222,-0.0368 -0.0521,-0.0298 -0.0813,-0.0298 -0.0369,-0.0298 -0.0809,-0.0738 -0.0516,-0.11014 0.0667,0.0293 0.15469,-0.0445 0.22076,0.0142 v -0.0511 c -0.0586,-0.0369 -0.20607,0.0293 -0.19849,-0.0813 0.0586,-0.0293 0.1546,-0.0662 0.21376,-0.0147 0.0292,-0.007 0.0732,-0.0146 0.051,-0.0666 l -0.11723,-0.007 0.0294,-0.0808 c -0.0813,-0.0146 -0.0813,0.0587 -0.11071,0.10312 -0.14743,-0.0515 -0.14743,0.13991 -0.25056,0.17679 -0.0808,0.0294 -0.19866,0.044 -0.27951,0 -0.008,-0.052 0.0516,-0.0151 0.0662,-0.0445 l -0.0662,-0.13233 0.0516,-0.0151 c 0.0662,0.0596 0.16929,0.0666 0.25765,0.0448 0.007,-0.0372 -0.0147,-0.0666 -0.0298,-0.096 0.0444,-0.0813 0.10313,0 0.1697,-0.0292 v -0.0223 c -0.22827,-0.0515 -0.44921,0.0591 -0.64811,-0.0809 0,-0.0151 -0.0148,-0.0445 0.0146,-0.052 0,-0.0733 0,-0.1617 -0.0586,-0.19865 0.0292,-0.0444 -0.008,-0.12475 0.0661,-0.13234 0.0663,0.088 0.1617,0.20618 0.19157,0.3168 0.0222,-0.008 0.0586,0.007 0.0808,-0.0152 0.0591,-0.0369 0,-0.0954 0,-0.13234 -0.11772,0.007 0.0146,-0.0955 -0.0808,-0.10304 0.007,-0.0445 -0.0591,-0.0737 -0.0148,-0.12482 0.088,0.0288 0.18398,0.0804 0.22795,0.16162 0.0667,0.088 0.14751,0.008 0.22126,0.0516 v -0.0223 c -0.10303,-0.0293 -0.16218,-0.15453 -0.20616,-0.20609 -0.0297,0.007 -0.0369,-0.0146 -0.0297,-0.0369 0.13283,-0.0586 0.25814,0.0808 0.37538,0.11062 v -0.0298 h -0.0142 c -0.008,-0.11014 -0.1622,-0.11014 -0.1622,-0.24248 0.11014,-0.0369 0.21317,0.12515 0.3314,0.0661 l -0.0369,-0.0515 c -0.0814,-0.0223 -0.11813,-0.11071 -0.19849,-0.1617 0.0732,-0.0298 0.15402,0.0582 0.26474,0.0289 0.0146,-0.0804 -0.0955,-0.0587 -0.13233,-0.11732 0.0737,-0.0151 0.12473,-0.10312 0.21319,-0.0667 -0.0223,-0.0884 -0.13234,0 -0.1622,-0.0808 0.0591,-0.0293 0.0959,-0.11063 0.17679,-0.0809 0.008,-0.052 -0.0879,-0.0591 -0.0809,-0.11764 0.0592,-0.0152 0.11022,-0.0591 0.18398,-0.0445 -0.007,-0.0516 -0.10313,-0.0516 -0.1471,-0.0516 -0.0221,-0.0809 0.0884,-0.0733 0.096,-0.096 -0.0444,-0.0369 -0.11055,0.0152 -0.14743,-0.007 -0.0294,-0.0591 0.0515,-0.0662 0.0369,-0.11023 -0.0515,-0.0151 -0.0369,0.0512 -0.0814,0.0662 -0.007,0.20618 -0.1541,0.38999 -0.3163,0.54468 -0.23587,0.1838 -0.50829,0.30912 -0.80281,0.30912 l -0.007,-0.11055 c -0.007,-0.004 -0.0124,-0.009 -0.0184,-0.0133 l 0.11195,-0.0822 c 0.0204,0.006 0.0393,0.004 0.0535,-0.008 0,-0.0733 -0.0955,-0.0511 -0.11014,-0.10305 l 0.0293,-0.0587 -0.0808,-0.0369 c 0.0217,-0.0445 -0.0516,-0.0809 0.0147,-0.11063 0.13983,0.0662 0.12523,0.23586 0.23546,0.3243 0.0515,0 0.0959,0.0804 0.13232,0.0142 -0.12482,-0.0364 -0.13232,-0.21319 -0.1692,-0.30873 0.10295,0.10264 0.14743,0.27234 0.29451,0.27944 l -0.0662,-0.0808 c 0.0587,-0.0369 0.10312,0.0147 0.16929,0.0298 -0.007,-0.13983 -0.1839,-0.11062 -0.19867,-0.22836 0.0219,-0.0222 0.0516,-0.007 0.0808,-0.0147 0.0809,0.044 0.1622,0.12481 0.22845,0.19106 l 0.0369,-0.044 c 0.0884,-0.0809 -0.0884,-0.10313 -0.10313,-0.16972 0.0809,-0.0512 0.1471,0.0813 0.22085,0.0666 -0.13291,-0.14694 0.13993,-0.10296 0.0955,-0.21319 -0.11023,-0.008 -0.21326,-0.0369 -0.29461,-0.0814 0.096,0.0151 0.20666,-0.0369 0.29461,0.0369 -0.044,-0.0298 0.0151,-0.10296 0.0661,-0.0884 -0.0732,-0.0662 -0.21317,0.007 -0.26473,-0.0808 0.12482,-0.0884 0.28751,0.0733 0.36085,-0.0954 -0.0592,0.007 -0.1329,0.007 -0.14709,-0.0516 0.0587,-0.0662 0.16169,-0.0146 0.22026,-0.0662 l -0.13941,-0.0667 c 0.0515,0 0.0732,-0.0879 0.13941,-0.0516 0,-0.0439 -0.0586,-0.0879 -0.11714,-0.0737 -0.0592,-0.0515 0.0879,-0.0808 0,-0.13234 -0.0592,0.11014 -0.14001,0.21319 -0.22845,0.27993 l 0.0147,0.0146 c -0.32381,0.21367 -0.69217,0.37537 -1.08975,0.44162 l -0.0147,-0.0294 c 0.11062,-0.044 0.25765,-0.044 0.32381,-0.18431 0.0663,0 0.17687,-0.0662 0.23554,0 v -0.0143 c -0.0218,-0.12572 0.10303,-0.0591 0.14742,-0.0813 l -0.0146,-0.0661 c 0.0292,-0.11773 0.11773,0.008 0.1763,0 0,-0.0516 -0.0364,-0.0879 0,-0.14759 l 0.11823,0.0813 c 0.0222,-0.0737 -0.0298,-0.10304 -0.0667,-0.1475 l 0.0298,-0.0218 c 0.0733,-0.0221 0.12532,0.0445 0.16929,0.0516 0,-0.0516 -0.037,-0.10353 -0.0808,-0.11763 0.0515,-0.0592 0.13233,-0.008 0.1768,0 -0.0222,-0.0516 0.0218,-0.0662 0.0369,-0.0956 l -0.096,-0.0151 c 0.0369,-0.044 0.0809,-0.10304 0.13993,-0.11772 0,-0.14743 -0.0809,0.0515 -0.13993,-0.0146 0.0733,-0.052 0.0515,-0.13283 0.13993,-0.14759 -0.1622,-0.0661 -0.1622,0.14759 -0.24305,0.21367 -0.42744,0.36787 -0.88366,0.69977 -1.42832,0.74324"
           style="fill:#b5a662;fill-opacity:1;fill-rule:nonzero;stroke:none"
           id="path3657" />
        <path
           id="path3661"
           style="fill:#b5a662;fill-opacity:1;fill-rule:nonzero;stroke:none"
           d="m 521.39689,220.55899 c 0,0.0296 0,0.052 -0.0292,0.0666 l -0.0668,-0.0146 0.0445,-0.0814 c 0.0148,0.008 0.0369,0.0148 0.0515,0.0294 z"
           inkscape:connector-curvature="0" />
        <path
           id="path3665"
           style="fill:#b5a662;fill-opacity:1;fill-rule:nonzero;stroke:none"
           d="m 521.66163,220.66952 c -0.044,-0.0146 -0.13232,-0.044 -0.18389,0.0222 l -0.0515,-0.0146 c 0.0222,-0.11825 0.18398,-0.0814 0.23545,-0.008 z"
           inkscape:connector-curvature="0" />
        <path
           id="path3669"
           style="fill:#b5a662;fill-opacity:1;fill-rule:nonzero;stroke:none"
           d="m 521.79446,220.80202 c -0.12523,0.0146 -0.24297,-0.0217 -0.3314,0.0661 l -0.0294,-0.0293 c 0,-0.0804 0.10313,-0.0586 0.12488,-0.11713 0.0591,0.0661 0.19148,-0.0299 0.23586,0.0804 z"
           inkscape:connector-curvature="0" />
        <path
           id="path3673"
           style="fill:#b5a662;fill-opacity:1;fill-rule:nonzero;stroke:none"
           d="m 521.90468,221.6927 c -0.0515,-0.0217 -0.11025,-0.095 -0.0662,-0.17631 l 0.0222,-0.0364 c 0.0736,0.0288 0.0293,0.13943 0.044,0.21269 z"
           inkscape:connector-curvature="0" />
        <path
           id="path3677"
           style="fill:#b5a662;fill-opacity:1;fill-rule:nonzero;stroke:none"
           d="m 522.03751,221.58298 v 0.0586 c -0.0151,0.007 -0.0814,-0.0151 -0.0666,-0.0586 v -0.0884 c 0.0591,-0.0222 0.0738,0.0515 0.0666,0.0884 z"
           inkscape:connector-curvature="0" />
        <path
           id="path3681"
           style="fill:#b5a662;fill-opacity:1;fill-rule:nonzero;stroke:none"
           d="m 521.92687,221.75936 c -0.0955,0.19907 0.1471,0.30203 -0.0515,0.44863 v 0.11075 c -0.0439,0.0151 -0.0369,-0.0369 -0.0515,-0.0516 -0.0148,-0.11762 0.0809,-0.1985 0.0661,-0.29452 -0.0884,0.0591 -0.11762,0.19907 -0.1617,0.3022 -0.0666,0 -0.0367,-0.11025 -0.0221,-0.15461 0.1546,-0.0884 0.007,-0.36787 0.22076,-0.36077 z"
           inkscape:connector-curvature="0" />
        <path
           id="path3685"
           style="fill:#b5a662;fill-opacity:1;fill-rule:nonzero;stroke:none"
           d="m 521.74298,221.79574 c -0.007,0.1551 -0.0738,0.28751 -0.14759,0.41225 l -0.0217,-0.007 c 0,-0.13241 0.0365,-0.25014 0.0661,-0.37545 0.0364,-0.007 0.0586,-0.0364 0.10312,-0.0298 z"
           inkscape:connector-curvature="0" />
        <path
           id="path3689"
           style="fill:#b5a662;fill-opacity:1;fill-rule:nonzero;stroke:none"
           d="m 523.10457,222.13473 c 0,0.0884 -0.11763,0.10312 -0.13944,0.16971 -0.0515,-0.0151 -0.008,-0.0814 0.0146,-0.1035 0.0369,-0.0365 0.0809,-0.0955 0.12487,-0.0662 z"
           inkscape:connector-curvature="0" />
        <path
           inkscape:connector-curvature="0"
           d="m 525.31342,223.30533 c 0.0955,-0.0959 0.16929,-0.25765 0.1617,-0.39756 0.0738,0.10303 0.0738,0.2946 0.0516,0.41983 0.14743,-0.0152 0.22828,-0.17687 0.30211,-0.28742 0,0.0444 -0.0369,0.21367 -0.10303,0.30211 0.1692,0.096 0.30912,-0.10354 0.44903,-0.1839 l -0.0737,0.21319 0.11764,0.0369 -0.11005,0.0445 c -0.49368,-0.0521 -1.04585,-0.0147 -1.51668,-0.0814 l -0.0808,-0.1622 c 0.0515,-0.0142 0.11005,0.0808 0.1763,0.0959 0.0222,-0.12474 -0.0809,-0.22828 -0.11773,-0.3314 0.10312,0.0294 0.1622,0.14 0.22077,0.22126 0.0738,-0.10304 -0.007,-0.22126 -0.0365,-0.31671 0.1325,0.10304 0.22085,0.25715 0.26482,0.41175 0.0884,-0.0587 0.11064,-0.19808 0.13242,-0.30871 l -0.0662,-0.31672 c 0.17688,0.1617 0.21367,0.40508 0.22836,0.64053 z"
           style="fill:#b5a662;fill-opacity:1;fill-rule:nonzero;stroke:none"
           id="path3695" />
        <path
           id="path3699"
           style="fill:#b5a662;fill-opacity:1;fill-rule:nonzero;stroke:none"
           d="m 523.14144,223.15839 c -0.0515,0.0223 -0.11775,0.007 -0.17631,0.0141 l 0.12488,-0.19857 c 0.0221,0.044 0.0591,0.11062 0.0515,0.18446 z"
           inkscape:connector-curvature="0" />
        <path
           id="path3703"
           style="fill:#b5a662;fill-opacity:1;fill-rule:nonzero;stroke:none"
           d="m 524.62124,210.59834 c 0.0516,-0.0217 0.0884,-0.10313 0.14759,-0.0662 -0.0147,0.10312 -0.14759,0.13241 -0.19156,0.22844 -0.0661,-0.0885 -0.1768,-0.12532 -0.26515,-0.19908 0.0661,-0.0738 0.13232,0.0151 0.19906,0.0226 l 0.0146,-0.25057 c 0.0955,0.0369 0.0369,0.19108 0.0955,0.26483 z"
           inkscape:connector-curvature="0" />
        <path
           id="path3707"
           style="fill:#b5a662;fill-opacity:1;fill-rule:nonzero;stroke:none"
           d="m 525.04826,210.61344 c 0,0.088 -0.25014,0.0586 -0.11025,0.18349 0.0515,-0.0364 0.0809,0.0298 0.11775,0.0445 v 0.0221 c -0.1546,-0.0515 -0.3314,0.0221 -0.4785,0.096 0,0.0369 0.0147,0.0804 -0.008,0.10313 -0.0661,0.007 -0.0661,-0.0814 -0.0809,-0.1329 0,-0.0298 -0.008,-0.0591 0.0222,-0.0809 0.1985,0.051 0.30163,-0.18439 0.47843,-0.25056 0.0217,0 0.0439,-0.008 0.0586,0.0151 z"
           inkscape:connector-curvature="0" />
        <path
           id="path3711"
           style="fill:#b5a662;fill-opacity:1;fill-rule:nonzero;stroke:none"
           d="m 524.37828,210.82662 c -0.0884,0.008 -0.17639,-0.007 -0.21326,-0.096 l 0.0147,-0.0369 c 0.0661,0.0445 0.22076,0.007 0.19857,0.13282 z"
           inkscape:connector-curvature="0" />
        <path
           id="path3715"
           style="fill:#b5a662;fill-opacity:1;fill-rule:nonzero;stroke:none"
           d="m 524.91577,210.94442 c -0.0809,0.13234 -0.26466,0.14744 -0.30913,0.30914 l 0.0146,-0.22787 c 0.10312,-0.007 0.19156,-0.0959 0.29452,-0.0813 z"
           inkscape:connector-curvature="0" />
        <path
           id="path3719"
           style="fill:#b5a662;fill-opacity:1;fill-rule:nonzero;stroke:none"
           d="m 525.51208,211.75425 c 0.0146,0.1471 -0.1325,0.0667 -0.1471,0 z"
           inkscape:connector-curvature="0" />
        <path
           id="path3723"
           style="fill:#b5a662;fill-opacity:1;fill-rule:nonzero;stroke:none"
           d="m 525.40896,211.96742 c -0.0515,0.0445 -0.0809,-0.0216 -0.12488,-0.0364 l 0.0292,-0.0515 c 0.0294,0.007 0.0809,0.0591 0.0955,0.0879 z"
           inkscape:connector-curvature="0" />
        <path
           id="path3727"
           style="fill:#b5a662;fill-opacity:1;fill-rule:nonzero;stroke:none"
           d="m 525.32811,212.07815 c -0.0222,0.007 -0.0661,0.0294 -0.11013,0.0221 0.0146,-0.0298 -0.0151,-0.0368 -0.0222,-0.0666 h -0.0293 l 0.0515,-0.051 c 0.0586,0.007 0.0511,0.0809 0.11013,0.0955 z"
           inkscape:connector-curvature="0" />
        <path
           id="path3731"
           style="fill:#b5a662;fill-opacity:1;fill-rule:nonzero;stroke:none"
           d="m 525.23264,212.18119 c -0.0299,0.0151 -0.0445,0.0884 -0.096,0.0666 -0.008,-0.0515 -0.10312,-0.11775 -0.0369,-0.1697 l 0.1329,0.103 z"
           inkscape:connector-curvature="0" />
        <path
           id="path3735"
           style="fill:#b5a662;fill-opacity:1;fill-rule:nonzero;stroke:none"
           d="m 526.35159,213.60993 c -0.0221,0 -0.0443,0.0511 -0.0666,0.0143 0.007,-0.007 0.0445,-0.0511 0.0666,-0.0143 z"
           inkscape:connector-curvature="0" />
        <path
           id="path3739"
           style="fill:#b5a662;fill-opacity:1;fill-rule:nonzero;stroke:none"
           d="m 521.14634,221.0162 c -0.0662,0.0362 -0.088,0.13943 -0.19156,0.11763 0.0151,-0.0596 0.11825,-0.103 0.19156,-0.11763 z"
           inkscape:connector-curvature="0" />
        <path
           id="path3743"
           style="fill:#b5a662;fill-opacity:1;fill-rule:nonzero;stroke:none"
           d="m 521.77236,221.10414 c -0.037,0.0216 -0.0591,0.103 -0.1325,0.059 v -0.0444 c 0.0364,0 0.0955,0.007 0.1325,-0.0146 z"
           inkscape:connector-curvature="0" />
        <path
           inkscape:connector-curvature="0"
           d="m 526.25894,216.06941 c 0.28891,0.20616 0.24074,0.1886 0.32819,0.26755 0.0879,0.0785 0.24106,0.24964 0.24535,0.39435 0.004,0.1447 -0.0217,0.1749 0.0308,0.25814 0.0525,0.0832 0.10544,0.12194 0.11385,0.14652 0.009,0.0241 0.0394,0.11163 0.0394,0.11163 0,0 -0.18397,0.11813 -0.28041,0.1447 -0.096,0.0259 -0.15749,0.0482 -0.21466,0.12714 -0.0568,0.0789 0.26712,0.32381 -0.026,0.28032 -0.29354,-0.0439 0.009,0.54277 -0.4818,-0.21038 -0.49071,-0.75313 -0.47744,-1.05533 -0.47744,-1.05533 l 0.50822,-0.44674 0.21457,-0.0179 z"
           style="fill:#b5a662;fill-opacity:1;fill-rule:nonzero;stroke:none"
           id="path3749" />
      </g>
    </g>
  </g>
</svg>
