<?xml version="1.0" encoding="UTF-8" standalone="no"?>
<!-- Created with Inkscape (http://www.inkscape.org/) -->
<svg
   xmlns:dc="http://purl.org/dc/elements/1.1/"
   xmlns:cc="http://creativecommons.org/ns#"
   xmlns:rdf="http://www.w3.org/1999/02/22-rdf-syntax-ns#"
   xmlns:svg="http://www.w3.org/2000/svg"
   xmlns="http://www.w3.org/2000/svg"
   xmlns:sodipodi="http://sodipodi.sourceforge.net/DTD/sodipodi-0.dtd"
   xmlns:inkscape="http://www.inkscape.org/namespaces/inkscape"
   width="231.5"
   height="226.97766"
   id="svg2"
   sodipodi:version="0.32"
   inkscape:version="0.46"
   version="1.0"
   sodipodi:docname="Logo_Charente_Maritime.svg"
   inkscape:output_extension="org.inkscape.output.svg.inkscape">
  <defs
     id="defs4" />
  <sodipodi:namedview
     id="base"
     pagecolor="#ffffff"
     bordercolor="#666666"
     borderopacity="1.0"
     inkscape:pageopacity="0.0"
     inkscape:pageshadow="2"
     inkscape:zoom="0.7"
     inkscape:cx="340.21761"
     inkscape:cy="27.280203"
     inkscape:document-units="px"
     inkscape:current-layer="layer1"
     showgrid="false" />
  <metadata
     id="metadata7">
    <rdf:RDF>
      <cc:Work
         rdf:about="">
        <dc:format>image/svg+xml</dc:format>
        <dc:type
           rdf:resource="http://purl.org/dc/dcmitype/StillImage" />
      </cc:Work>
    </rdf:RDF>
  </metadata>
  <g
     inkscape:label="Calque 1"
     inkscape:groupmode="layer"
     id="layer1"
     transform="translate(-148.35714,-75.568778)">
    <g
       id="g2396"
       transform="translate(54.285714,-84.285714)">
      <path
         style="fill:#efba39"
         d="M 162.44763,286.40016 C 162.13906,285.59605 162.39976,280.17195 163.02695,274.3466 C 166.00322,246.7032 178.56572,221.62774 198.88763,202.76666 L 207.07143,195.17115 L 221.38495,186.737 L 226.47819,184.15261 C 229.27947,182.73119 234.49643,180.58067 238.07143,179.37367 L 262.72285,173.86218 L 273.64714,173.86973 C 279.6555,173.87389 287.49643,174.34225 291.07143,174.91053 C 298.13461,176.03331 309.33766,178.92928 308.77902,179.48792 C 308.58822,179.67872 304.93638,179.16598 300.66381,178.3485 C 296.09859,177.47503 287.13507,176.86218 278.92501,176.86218 L 264.95454,176.86218 C 243.53612,179.72002 224.3375,189.23729 206.72618,203.51643 C 206.27045,201.75311 191.58021,218.50808 185.95371,227.20849 C 175.94237,242.68929 169.83285,260.72769 168.46532,278.84308 C 167.81228,287.4938 167.68694,287.86218 165.39656,287.86218 C 164.08321,287.86218 162.75619,287.20427 162.44763,286.40016 z M 233.73645,186.11218 L 225.03603,190.36218 L 233.73645,186.11218 z"
         id="path2404"
         sodipodi:nodetypes="cscccccccssscccssscccc" />
      <path
         style="fill:#5b98c8"
         d="M 147.3926,385.67345 C 146.19425,385.09409 144.65036,383.25985 143.96173,381.59735 C 142.88048,378.98697 142.97308,378.09854 144.64055,375.0847 C 147.09944,370.64043 154.06795,366.86218 159.80596,366.86218 C 163.578,366.86218 164.07143,366.59872 164.07143,364.58469 C 164.07143,363.33206 163.34929,361.2762 162.46669,360.01611 C 161.11337,358.08397 160.09865,357.76553 155.99002,357.9836 C 153.31046,358.12582 150.7708,357.89489 150.34633,357.47042 C 148.84988,355.97396 153.51205,353.86218 158.31222,353.86218 C 168.23306,353.86218 171.90418,358.43746 170.5812,369.15293 C 168.37673,387.00808 168.88543,385.36218 165.57143,385.36218 C 163.20673,385.36218 162.5027,384.87763 162.24688,383.07404 C 161.92435,380.80013 161.90082,380.80479 158.46208,383.82404 C 154.84799,386.99726 151.34229,387.58296 147.3926,385.67345 z M 158.8305,379.61218 C 161.16849,377.11634 163.07143,372.73558 163.07143,369.8491 C 163.07143,368.19151 162.71267,368.09128 160.07307,369.01145 C 153.86314,371.17625 148.93003,378.38745 151.73809,381.19551 C 153.13468,382.5921 156.80701,381.77228 158.8305,379.61218 z M 212.29394,385.30548 C 209.54996,383.38352 209.53735,381.75931 212.16634,368.86909 C 213.89833,360.37692 214.02826,358.44392 212.91634,357.71085 C 211.81669,356.98587 211.86664,356.59708 213.1902,355.57889 C 214.08053,354.89398 215.12888,352.87711 215.51987,351.09695 C 216.02588,348.79309 216.94171,347.68186 218.69766,347.24114 C 221.90823,346.43534 222.57593,347.2278 222.21512,351.41582 C 221.94686,354.52942 222.16697,354.86218 224.49481,354.86218 C 226.03052,354.86218 227.07143,355.42493 227.07143,356.25519 C 227.07143,357.74899 224.98191,358.86218 222.17799,358.86218 C 220.77737,358.86218 220.10639,360.73217 218.65272,368.68703 C 216.48358,380.55708 216.6875,382.25818 220.32998,382.6786 C 223.31757,383.02344 223.72383,383.80978 221.87143,385.66218 C 220.18356,387.35005 214.93383,387.15453 212.29394,385.30548 z M 292.85629,385.30847 C 287.58891,382.44962 286.80632,371.66471 291.28766,363.69123 C 294.48094,358.00957 299.86642,354.86218 306.395,354.86218 C 312.62074,354.86218 315.07143,356.75289 315.07143,361.55606 C 315.07143,367.41863 308.91841,372.455 300.16847,373.75443 C 295.89538,374.38902 295.58554,374.63445 295.77169,377.23725 C 296.11367,382.01912 297.84357,383.1655 303.79116,382.55166 C 309.20493,381.99291 310.53032,383.00329 307.87143,385.66218 C 306.20387,387.32974 296.1438,387.09276 292.85629,385.30847 z M 304.88422,367.88599 C 308.26958,364.79394 309.33716,359.28512 306.74388,358.28998 C 302.61642,356.70612 297.94843,361.67046 296.54852,369.13259 L 295.85416,372.83388 L 298.77559,371.81547 C 300.38237,371.25534 303.13126,369.48707 304.88422,367.88599 z M 94.071426,385.00909 C 94.071426,384.53989 95.386695,379.02739 96.994246,372.75909 C 98.601797,366.49079 100.43507,358.14346 101.06819,354.20948 C 102.32229,346.41684 103.42391,345.38268 109.23308,346.54451 C 112.50971,347.19984 112.45888,347.05723 114.87113,362.36218 L 116.60487,373.36218 L 124.12189,360.417 C 130.67914,349.12467 132.05062,347.36514 134.86347,346.63626 C 138.90563,345.58883 142.53738,347.24685 141.54994,349.68887 C 141.1778,350.60919 139.56533,358.56218 137.96668,367.36218 C 136.36802,376.16218 134.85172,383.92468 134.59711,384.61218 C 134.10142,385.9507 128.47222,386.36271 127.76577,385.11218 C 127.53273,384.69968 128.6159,378.0844 130.1728,370.41156 C 131.72969,362.73872 132.887,356.34442 132.74459,356.20201 C 132.60218,356.0596 129.1709,361.77917 125.11952,368.91217 C 117.22578,382.81016 116.11849,384.21047 113.43165,383.69304 C 112.05061,383.42707 111.23665,380.84447 109.44956,371.05832 C 108.21413,364.29308 107.02351,358.21886 106.80374,357.56004 C 106.58396,356.90122 105.19796,362.60288 103.72374,370.2304 C 102.24952,377.85792 100.7981,384.49542 100.49836,384.9804 C 99.798556,386.11271 94.071426,386.13827 94.071426,385.00909 z M 175.12863,383.67554 C 175.16009,382.40319 176.195,375.73718 177.42841,368.86218 L 179.67099,356.36218 L 182.87121,356.04882 C 185.63273,355.77842 186.0756,356.05258 186.10184,358.04882 C 186.12725,359.98163 186.28785,360.09587 187.07814,358.74332 C 188.51698,356.2808 193.91148,354.30223 195.32706,355.71781 C 196.73427,357.12502 195.69168,358.30836 190.96616,360.66745 C 186.65771,362.81833 184.49542,367.23694 182.79045,377.37445 C 181.45816,385.29602 181.42062,385.36478 178.25923,385.67554 C 175.49097,385.94766 175.07896,385.68444 175.12863,383.67554 z M 195.47287,381.68644 C 195.85437,379.30809 196.93414,372.63718 197.87236,366.86218 L 199.57821,356.36218 L 202.82482,356.04882 C 206.84621,355.66068 206.85627,355.84967 203.71992,372.86218 L 201.41548,385.36218 L 198.09736,385.68644 L 194.77923,386.01069 L 195.47287,381.68644 z M 227.47287,381.68644 C 227.85437,379.30809 228.93414,372.63718 229.87236,366.86218 L 231.57821,356.36218 L 234.82482,356.04882 C 238.84621,355.66068 238.85627,355.84967 235.71992,372.86218 L 233.41548,385.36218 L 230.09736,385.68644 L 226.77923,386.01069 L 227.47287,381.68644 z M 241.70333,385.07559 C 241.24524,384.33439 244.49521,361.40984 245.66765,357.11218 C 246.07438,355.62128 251.68446,355.42703 252.57806,356.8729 C 252.97346,357.51267 253.99433,357.32916 255.35958,356.3729 C 256.54585,355.54201 259.22596,354.86218 261.31538,354.86218 C 264.50669,354.86218 265.30321,355.30203 266.29535,357.61218 C 266.94492,359.12468 267.59178,360.53119 267.73281,360.73775 C 267.87384,360.94431 269.17273,359.70681 270.61923,357.98775 C 272.79822,355.39816 273.97135,354.86218 277.46032,354.86218 C 284.647,354.86218 285.20876,356.80516 282.52002,372.36218 C 280.04203,386.69977 280.38126,385.86218 277.05238,385.86218 C 274.45859,385.86218 274.07599,385.50502 274.10656,383.11218 C 274.12588,381.59968 274.78507,377.43718 275.57143,373.86218 C 276.35779,370.28718 277.01698,365.64479 277.0363,363.54576 C 277.06916,359.97544 276.89618,359.74974 274.35373,360.04576 C 270.72495,360.46826 267.47284,365.45896 266.12483,372.67386 C 263.81721,385.02491 263.69651,385.34448 261.20609,385.69684 C 259.90516,385.88091 258.48394,385.65591 258.04783,385.19684 C 257.61172,384.73778 258.10002,380.08718 259.13295,374.86218 C 260.16588,369.63718 261.0246,364.09617 261.04122,362.54882 C 261.06873,359.98678 260.78921,359.76346 257.91215,360.04882 C 253.78659,360.45802 251.51587,364.76241 249.20083,376.56206 C 247.58909,384.77702 247.30093,385.38261 244.86729,385.66949 C 243.43345,385.83851 242.00966,385.57126 241.70333,385.07559 z M 200.3809,350.22626 C 199.41372,347.70584 201.44042,345.39529 204.92228,345.04882 C 207.65455,344.77695 208.07143,345.04832 208.07143,347.09882 C 208.07143,348.39867 207.53143,350.00218 206.87143,350.66218 C 205.13054,352.40307 201.11267,352.13322 200.3809,350.22626 z M 232.3809,350.22626 C 231.41362,347.70556 233.47841,345.36218 236.66672,345.36218 C 239.87793,345.36218 241.08415,347.937 239.03156,350.41022 C 237.40485,352.37029 233.15857,352.25283 232.3809,350.22626 z M 107.13309,336.03491 C 101.79162,333.17025 99.855586,328.69908 100.34674,320.36218 C 100.8677,311.51932 104.47656,303.94599 109.87033,300.37656 C 117.53708,295.30295 132.57143,294.65599 132.57143,299.39969 C 132.57143,301.17878 131.96398,301.33449 126.07143,301.06592 C 117.62859,300.6811 113.91897,302.84432 110.52662,310.13067 C 105.98915,319.87662 108.08495,331.82353 114.61984,333.46369 C 116.05559,333.82404 119.66955,333.83218 122.65086,333.48179 C 128.4808,332.79659 129.53264,333.7253 125.84892,336.30548 C 122.63984,338.5532 111.52922,338.39259 107.13309,336.03491 z M 167.52597,335.40763 C 164.09175,331.97341 164.2148,327.05687 167.82143,323.60232 C 171.32747,320.24411 177.01984,317.86218 181.53931,317.86218 C 184.74381,317.86218 185.07143,317.60165 185.07143,315.05331 C 185.07143,310.02525 183.07764,308.51104 177.2007,309.07574 C 171.51602,309.62196 170.20837,308.86809 172.63366,306.4428 C 173.72356,305.3529 176.07876,304.86218 180.21978,304.86218 C 185.5241,304.86218 186.56656,305.20347 189.14835,307.78526 C 191.67657,310.31348 192.06115,311.42791 191.99529,316.03526 C 191.95342,318.96506 191.37648,324.73718 190.7132,328.86218 C 189.5269,336.23994 189.45887,336.36218 186.53934,336.36218 C 183.87604,336.36218 183.60233,336.07127 183.87251,333.52776 L 184.17359,330.69335 L 180.58918,334.27776 C 176.10901,338.75793 171.29283,339.17449 167.52597,335.40763 z M 179.12682,331.83254 C 181.40101,330.61543 183.53849,326.66177 184.4163,322.0487 C 185.00056,318.9783 184.88266,318.7826 182.80912,319.38111 C 179.7448,320.2656 176.07473,322.97716 173.77769,326.0538 C 170.21006,330.83224 173.7832,334.69235 179.12682,331.83254 z M 221.86607,336.3136 C 216.68948,333.50366 215.6722,324.06276 219.67951,316.02113 C 223.24702,308.86208 227.81497,305.86218 235.14858,305.86218 C 241.63641,305.86218 244.07143,307.68892 244.07143,312.55606 C 244.07143,318.67379 235.91355,324.79365 227.69643,324.84022 C 223.88509,324.86182 223.83179,324.914 224.45237,328.01687 C 225.50324,333.27121 226.84964,334.16488 232.79116,333.55166 C 238.20493,332.99291 239.53032,334.00329 236.87143,336.66218 C 235.20613,338.32748 225.1456,338.09377 221.86607,336.3136 z M 229.38717,321.73999 C 233.72468,319.51155 237.07143,315.54982 237.07143,312.6437 C 237.07143,306.59726 230.13405,308.30579 227.04403,315.11323 C 223.84447,322.162 224.57028,324.21472 229.38717,321.73999 z M 281.64286,336.29075 C 279.6217,334.26959 279.6972,330.57376 281.99892,318.86218 C 283.02581,313.63718 283.46222,309.21218 282.96871,309.02885 C 281.68704,308.55271 281.85828,306.0999 283.20453,305.65115 C 283.82773,305.44341 284.84023,303.71841 285.45453,301.81781 C 286.33776,299.08513 287.17154,298.29359 289.43993,298.03432 C 292.18798,297.72023 292.29088,297.85669 291.89073,301.28432 C 291.57089,304.02397 291.83597,304.86577 293.02223,304.87749 C 293.87429,304.88591 295.21749,305.30162 296.00713,305.80128 C 298.04535,307.09101 295.61726,309.86218 292.44899,309.86218 C 291.14133,309.86218 290.07007,309.97468 290.0684,310.11218 C 290.06674,310.24968 289.15881,315.03152 288.05079,320.73849 C 285.86225,332.01077 286.23512,333.86218 290.69387,333.86218 C 293.30979,333.86218 293.7129,334.82071 291.87143,336.66218 C 290.14903,338.38458 283.49507,338.14296 281.64286,336.29075 z M 301.43175,336.40201 C 293.77399,331.0383 296.76937,313.67547 306.36145,307.82688 C 310.81669,305.11038 319.33878,305.12953 322.07143,307.86218 C 328.04047,313.83122 318.85463,324.7756 307.82143,324.84022 C 304.59222,324.85913 304.07143,325.17847 304.07143,327.13967 C 304.07143,328.3923 304.8101,330.47177 305.71292,331.76073 C 307.2,333.88382 307.85849,334.04504 312.71292,333.4745 C 317.05156,332.96457 318.07143,333.12517 318.07143,334.31826 C 318.07143,335.12871 317.20101,336.25765 316.13717,336.827 C 313.25948,338.36709 303.84902,338.09512 301.43175,336.40201 z M 310.7671,320.90618 C 315.12032,318.25185 317.44583,314.49005 316.66261,311.36947 C 314.98995,304.70504 305.07143,312.80043 305.07143,320.83006 C 305.07143,323.37674 306.68,323.39824 310.7671,320.90618 z M 132.7648,336.11218 C 132.53124,335.69968 133.383,329.96218 134.6576,323.36218 C 135.9322,316.76218 137.55924,308.21218 138.27324,304.36218 C 139.53853,297.53955 139.64744,297.36218 142.57143,297.36218 C 145.88908,297.36218 146.01098,297.84545 144.70744,305.83037 L 143.97801,310.29857 L 146.33917,308.08037 C 149.26882,305.32811 157.99591,304.92952 160.5,307.43361 C 162.47675,309.41036 162.46645,311.51424 160.41816,324.15737 C 158.58971,335.4435 157.92316,336.86218 154.44898,336.86218 C 151.53784,336.86218 151.42433,335.05129 153.57143,322.86218 C 155.54792,311.64162 155.50222,311.00841 152.66457,310.2962 C 147.2951,308.94855 143.13933,314.54684 141.09126,325.88678 C 139.42788,335.09676 138.55294,336.86218 135.65188,336.86218 C 134.29755,336.86218 132.99836,336.52468 132.7648,336.11218 z M 197.49162,335.5148 C 197.20725,334.77375 198.03255,328.13625 199.32561,320.7648 L 201.67664,307.36218 L 204.87403,307.04882 C 207.51775,306.78973 208.07143,307.0849 208.07143,308.75337 C 208.07143,310.65864 208.20843,310.63427 210.52598,308.31673 C 213.45866,305.38404 218.40154,304.90953 217.88136,307.61062 C 217.69617,308.57226 215.87482,310.14531 213.83392,311.1063 C 208.83093,313.46203 207.23308,316.23689 205.23137,326.04569 C 204.29792,330.61976 203.17852,334.92468 202.7438,335.61218 C 201.69161,337.27619 198.14228,337.21038 197.49162,335.5148 z M 246.05828,335.11218 C 246.05104,334.14968 247.03009,327.40491 248.23395,320.12381 C 249.93307,309.84726 250.79941,306.7659 252.10622,306.35114 C 254.39351,305.62518 257.07143,306.76751 257.07143,308.46917 C 257.07143,309.45752 257.65241,309.2812 259.07143,307.86218 C 261.91524,305.01837 271.00598,305.02739 273.58447,307.87659 C 275.34853,309.82585 275.3483,310.28673 273.5775,322.12659 C 272.571,328.85617 271.29641,334.94743 270.74506,335.66274 C 269.37824,337.43604 264.52536,336.78983 264.73303,334.86218 C 264.82192,334.03718 265.70285,328.79587 266.69067,323.21483 C 268.19215,314.73166 268.26857,312.80465 267.15662,311.46483 C 265.20899,309.11808 262.50847,309.49934 259.02979,312.61218 C 256.32399,315.03342 255.7686,316.49791 254.38415,324.86218 C 253.51931,330.08718 252.36505,334.92468 251.81913,335.61218 C 250.27927,337.55138 246.07387,337.18638 246.05828,335.11218 z M 109.07143,284.86218 C 106.57705,282.36781 106.56233,282.75233 109.91403,262.86218 L 112.69445,246.36218 L 115.88294,246.04882 C 118.00602,245.84017 119.07348,246.17431 119.07756,247.04882 C 119.08094,247.77117 117.89531,255.41715 116.44283,264.03989 C 114.99035,272.66262 114.09179,280.47285 114.44601,281.39595 C 114.91238,282.61128 115.77721,282.90186 117.58074,282.4492 C 119.29211,282.01967 120.07143,282.2368 120.07143,283.14313 C 120.07143,287.10092 112.4943,288.28505 109.07143,284.86218 z M 126.70629,284.7896 C 124.70199,283.21302 124.07675,281.83695 124.09366,279.0396 C 124.13203,272.69441 129.81301,268.05397 138.66055,267.14083 C 143.78134,266.61231 144.07143,266.43287 144.07143,263.79371 C 144.07143,259.33274 141.51802,257.56481 135.86025,258.10845 C 130.43137,258.6301 129.2444,257.83206 131.73891,255.33755 C 134.245,252.83147 145.31761,253.66392 148.23115,256.57746 C 151.03684,259.38315 151.56739,266.06471 149.84184,276.86218 C 148.49251,285.3055 148.46374,285.36218 145.52744,285.36218 C 142.88066,285.36218 142.59348,285.05727 142.78224,282.4475 L 142.99305,279.53282 L 139.24007,283.1975 C 134.85102,287.4833 130.78704,287.99952 126.70629,284.7896 z M 138.80791,279.92956 C 141.32488,277.82945 143.07143,273.90482 143.07143,270.3491 C 143.07143,268.13012 142.86288,268.03892 140.03934,269.02321 C 134.08614,271.09851 129.04014,278.49756 131.73809,281.19551 C 132.98501,282.44243 136.56443,281.80148 138.80791,279.92956 z M 205.59248,284.7949 C 197.91126,283.61554 182.81052,279.88519 181.76969,278.90993 C 181.32873,278.49676 185.37874,277.90015 190.76969,277.58413 C 196.16065,277.2681 201.92143,276.58186 203.57143,276.05914 C 205.22143,275.53642 210.05893,274.07403 214.32143,272.8094 C 218.58393,271.54476 222.07143,270.09626 222.07143,269.59049 C 222.07143,269.08473 221.2328,267.47645 220.20782,266.01655 C 215.72058,259.62533 211.11785,245.39858 211.08621,237.82228 C 211.07808,235.87533 211.73854,231.72118 212.55389,228.59084 C 214.0005,223.03691 213.9782,222.81361 211.63128,219.35524 C 208.10178,214.15423 207.07143,207.5918 207.07143,190.31296 C 207.07143,177.99149 207.34547,174.86218 208.42446,174.86218 C 210.32976,174.86218 226.70837,192.05248 232.32858,199.95093 C 234.90713,203.57475 238.71664,210.09975 240.79415,214.45093 C 244.54383,222.30437 244.57606,222.47909 245.2045,238.36218 C 245.83755,254.36174 246.49984,258.86218 248.22131,258.86218 C 249.03399,258.86218 259.01559,254.1202 259.93052,253.29945 C 260.12802,253.12229 259.3321,251.63263 258.16181,249.98911 C 254.75845,245.20953 250.96248,233.95167 250.37111,226.88394 C 250.00521,222.51093 250.35764,218.28621 251.44076,214.06132 C 253.0029,207.96802 252.98928,207.67008 251.02737,205.01645 C 248.02612,200.95705 246.35424,193.34093 246.02669,182.23631 C 245.58058,167.11227 245.94318,159.86218 247.14567,159.86218 C 250.55725,159.86218 270.51578,182.60091 276.63779,193.46252 C 282.73185,204.27454 284.06624,209.68287 284.1152,223.76873 C 284.14702,232.92425 284.62476,237.72715 285.8652,241.36218 L 287.57143,246.36218 L 298.07143,246.88471 C 310.36084,247.49629 310.59727,247.59762 322.57143,257.38492 L 325.57143,259.83703 L 322.25964,258.73024 C 317.77154,257.23033 302.79933,258.15237 296.57143,260.31221 C 293.82143,261.26591 288.71938,263.62394 285.23355,265.55228 L 278.89567,269.05836 L 281.73355,270.5172 C 283.29438,271.31957 285.24643,272.68931 286.07143,273.56108 C 287.41929,274.98536 287.36858,275.06368 285.57143,274.33322 C 284.47143,273.88613 279.90187,273.32783 275.41685,273.09256 C 265.52075,272.57343 259.58285,274.11664 246.14863,280.69912 L 236.63176,285.36218 L 224.10159,285.53754 C 217.21,285.63399 208.8809,285.2998 205.59248,284.7949 z"
         id="path2402" />
      <path
         style="fill:#65b641"
         d="M 247.34238,259.7099 L 253.71703,256.56641 C 257.22309,254.8375 259.95565,253.18426 259.7894,252.89256 C 250.88027,237.26076 248.43668,225.5586 251.56983,213.52963 C 252.98775,208.08586 252.96249,207.63146 251.09952,205.06953 C 247.51449,200.13946 246.07143,191.55315 246.07143,175.15208 C 246.07143,163.59092 246.37627,159.86031 247.32143,159.8545 C 249.57923,159.84064 266.73677,178.55272 272.85982,187.70679 C 282.15785,201.60749 283.45019,205.70221 283.79748,222.36218 C 284.08233,236.02639 284.93407,241.18734 287.61057,245.46663 C 288.80266,247.37259 289.61745,247.5272 296.24912,247.10581 C 307.66776,246.38025 310.93559,247.69219 323.07143,257.87422 C 325.5602,259.96232 325.56075,259.96653 323.19286,258.81297 C 320.19544,257.35271 306.56113,257.39475 300.87405,258.88179 C 298.50761,259.50055 292.37302,262.0453 287.24162,264.53678 L 277.91181,269.06673 L 247.34238,259.7099 z"
         id="path2400"
         sodipodi:nodetypes="ccssssssssssssccc" />
      <path
         style="fill:#015fab"
         d="M 213.46053,385.90601 C 210.14581,384.5297 209.96523,382.51402 212.14482,371.21964 C 213.26646,365.40742 213.91058,359.40632 213.57619,357.88387 C 213.14043,355.89983 213.40771,354.94712 214.51982,354.52036 C 215.37321,354.19288 216.07143,352.80166 216.07143,351.42875 C 216.07143,349.98428 216.8864,348.49639 218.00569,347.89736 C 221.55026,346.00037 222.29163,346.59937 221.58388,350.78848 C 220.95018,354.53933 221.04679,354.72924 223.74598,355.03848 C 227.54737,355.47399 227.34379,357.28701 223.45096,357.66588 L 220.3305,357.96957 L 218.13057,369.01123 C 216.9206,375.08414 216.17319,380.68498 216.46965,381.45753 C 216.7661,382.23009 218.18078,382.86218 219.61337,382.86218 C 221.55367,382.86218 222.13352,383.30857 221.88656,384.61218 C 221.50973,386.60142 216.85627,387.31597 213.46053,385.90601 z M 294.09114,385.57773 C 292.72698,384.8875 291.04611,383.20663 290.35588,381.84247 C 287.63577,376.4665 289.45375,365.4144 293.85957,360.54237 C 297.85865,356.12011 308.15473,353.27913 311.67173,355.62749 C 314.26088,357.35632 315.22092,360.87919 314.06082,364.39432 C 312.5484,368.977 308.41766,371.72499 301.10525,373.01304 C 295.3621,374.02468 295.07143,374.21525 295.07143,376.96903 C 295.07143,378.58074 296.00765,380.7984 297.18517,381.97592 C 298.98375,383.7745 300.02746,383.99302 304.18517,383.44148 C 309.50727,382.73548 309.85904,382.93172 307.5,385.29075 C 305.58461,387.20614 297.64533,387.37606 294.09114,385.57773 z M 302.86941,369.89356 C 307.76288,366.34875 309.45477,363.52565 308.63741,360.26904 C 308.17879,358.44176 307.35748,357.86218 305.22669,357.86218 C 301.01261,357.86218 297.02917,362.79456 295.73728,369.61218 C 295.22482,372.31658 295.4278,372.86218 296.94639,372.86218 C 297.95012,372.86218 300.61548,371.5263 302.86941,369.89356 z M 94.713783,385.09252 C 94.452161,384.66921 95.344488,380.50671 96.696732,375.84252 C 98.048976,371.17833 99.947914,362.86218 100.91659,357.36218 L 102.67783,347.36218 L 106.50641,347.04396 C 108.61212,346.86894 110.74986,347.14061 111.25693,347.64768 C 111.76399,348.15475 113.07055,354.1263 114.16039,360.91781 C 115.25022,367.70931 116.29811,373.4222 116.48904,373.61313 C 116.67997,373.80406 120.01274,368.4257 123.8952,361.66122 C 127.77765,354.89675 131.44833,348.79968 132.05224,348.11218 C 132.65616,347.42468 134.98879,346.86218 137.23585,346.86218 C 141.31348,346.86218 141.32015,346.8685 140.66365,350.11218 C 138.28055,361.88668 135.07143,380.37034 135.07143,382.32176 C 135.07143,384.6993 133.40227,385.86218 129.98964,385.86218 C 127.52585,385.86218 127.56084,385.27258 131.02816,368.36218 C 132.60698,360.66218 133.76851,354.23061 133.60936,354.06979 C 133.31193,353.76927 121.58709,373.79938 118.65784,379.61218 C 117.49331,381.92306 116.32558,382.86218 114.61664,382.86218 C 112.01608,382.86218 111.67553,381.80542 108.97703,365.36218 C 106.87122,352.53049 106.57244,352.94631 102.46151,374.42991 C 101.52145,379.34266 100.31901,383.92468 99.789421,384.61218 C 98.726149,385.9925 95.460977,386.3015 94.713783,385.09252 z M 145.52584,383.43295 C 144.63972,382.08057 144.0754,379.55038 144.25279,377.72514 C 144.68806,373.2464 151.62079,367.85213 156.89916,367.88515 L 160.57143,367.90812 L 156.97163,369.99586 C 150.44854,373.77901 148.28352,380.84256 153.17154,382.39396 C 157.16382,383.66105 161.94294,378.48606 163.51177,371.19721 C 164.06251,368.63842 163.84617,367.94241 162.38221,367.56321 C 160.72411,367.13373 160.71899,367.0844 162.32143,366.97818 C 164.86247,366.80974 164.62022,361.41097 161.95189,358.74264 C 160.1889,356.97966 159.08189,356.72596 155.37125,357.23456 C 149.28323,358.06902 150.05434,355.6896 156.26764,354.46854 C 159.96463,353.742 161.54007,353.92899 164.69316,355.46854 C 170.55007,358.32829 171.4039,362.00597 169.23203,375.01854 C 167.5858,384.88179 167.39104,385.36218 165.03852,385.36218 C 162.82258,385.36218 162.60513,385.00587 162.90252,381.86218 L 163.23362,378.36218 L 159.36036,382.11218 C 156.13895,385.23107 154.78282,385.86218 151.30232,385.86218 C 147.97454,385.86218 146.79157,385.36469 145.52584,383.43295 z M 175.74707,385.11218 C 175.20019,384.18504 179.02993,359.93055 180.04979,357.86218 C 180.45657,357.03718 181.86536,356.36218 183.18041,356.36218 C 185.18138,356.36218 185.52565,356.80323 185.29084,359.06584 L 185.01026,361.7695 L 187.96392,358.81584 C 191.06052,355.71925 195.07143,354.85515 195.07143,357.28463 C 195.07143,358.06697 193.51544,359.2206 191.61368,359.84824 C 186.89453,361.4057 184.20844,366.14876 182.49845,375.94378 C 181.72226,380.38991 180.83209,384.44042 180.52029,384.94491 C 179.83906,386.04718 176.37028,386.16873 175.74707,385.11218 z M 195.67437,385.02874 C 195.39107,384.57034 196.0336,379.95784 197.10221,374.77874 C 198.17083,369.59963 199.05107,363.76468 199.05829,361.81218 C 199.06552,359.85968 199.61143,357.72218 200.27143,357.06218 C 201.65652,355.67709 204.7102,355.46867 205.47552,356.707 C 206.026,357.59769 201.51433,383.33653 200.52798,384.93249 C 199.81379,386.08806 196.37126,386.15633 195.67437,385.02874 z M 227.67437,385.02874 C 227.39107,384.57034 228.0336,379.95784 229.10221,374.77874 C 230.17083,369.59963 231.05107,363.76468 231.05829,361.81218 C 231.06552,359.85968 231.61143,357.72218 232.27143,357.06218 C 233.65652,355.67709 236.7102,355.46867 237.47552,356.707 C 238.026,357.59769 233.51433,383.33653 232.52798,384.93249 C 231.81379,386.08806 228.37126,386.15633 227.67437,385.02874 z M 242.11813,383.11218 C 242.14381,381.59968 243.15968,374.96218 244.37561,368.36218 C 246.53311,356.65137 246.65248,356.35455 249.32891,356.04576 C 251.70702,355.77138 252.07143,356.08055 252.07143,358.37248 L 252.07143,361.01563 L 254.70445,357.88647 C 256.89377,355.2846 257.94166,354.80827 260.92303,355.05974 C 263.74862,355.29808 264.83319,355.99804 266.04001,358.36218 C 266.88229,360.01218 267.65619,361.52194 267.75978,361.71719 C 267.86337,361.91245 269.37249,360.44995 271.11337,358.46719 C 274.84621,354.21572 279.581,353.55779 282.58176,356.87359 C 284.33884,358.81515 284.33984,359.24055 282.6106,369.12359 C 279.97392,384.19283 279.63614,385.32233 277.65204,385.70443 C 276.66586,385.89435 275.48294,385.67004 275.02333,385.20596 C 274.56372,384.74188 275.05149,379.31035 276.10726,373.13588 C 278.16007,361.13048 277.97124,358.86218 274.91899,358.86218 C 270.20498,358.86218 265.84,367.47565 264.41614,379.58757 C 263.94617,383.58536 263.34001,384.95955 261.83598,385.43691 C 258.17724,386.59815 257.66596,384.52596 259.4249,375.66487 C 260.33134,371.09839 261.07263,365.44968 261.07221,363.11218 C 261.0715,359.26366 260.83894,358.86218 258.61039,358.86218 C 253.76194,358.86218 250.00752,366.02412 248.45711,378.2306 C 247.7177,384.05198 246.64838,385.86218 243.94899,385.86218 C 242.55609,385.86218 242.08348,385.15231 242.11813,383.11218 z M 201.45547,350.42059 C 200.36402,347.57632 201.54787,345.36687 204.33567,345.04521 C 207.82689,344.64238 208.98497,347.19525 206.53772,349.89943 C 204.44273,352.21436 202.23085,352.44119 201.45547,350.42059 z M 233.45547,350.42059 C 232.36402,347.57632 233.54787,345.36687 236.33567,345.04521 C 239.82689,344.64238 240.98497,347.19525 238.53772,349.89943 C 236.44273,352.21436 234.23085,352.44119 233.45547,350.42059 z M 108.14251,336.11063 C 102.29785,333.13036 100.6087,329.82376 100.68176,321.50578 C 100.80497,307.47896 108.72759,298.1411 121.36603,297.1266 C 129.122,296.50403 133.07143,297.30362 133.07143,299.49646 C 133.07143,300.84626 132.22937,300.98742 127.61578,300.41099 C 116.96338,299.08006 110.81998,304.09759 108.06831,316.3761 C 105.3698,328.4174 113.15999,337.46717 123.20847,333.96425 C 127.2861,332.54278 128.24238,333.49039 125.21064,335.94826 C 122.10697,338.46445 112.92985,338.55175 108.14251,336.11063 z M 168.81866,335.878 C 160.82627,329.59118 167.59001,320.108 181.32143,318.34834 C 186.48416,317.68674 187.17511,316.3786 184.94596,311.48615 C 183.6196,308.57512 180.33022,307.5354 175.38309,308.46349 C 172.64817,308.97656 171.91814,308.82205 172.25812,307.80209 C 173.42076,304.31418 185.10475,304.38129 188.87903,307.89756 C 191.93764,310.74709 192.37428,315.17106 190.64528,325.79281 C 189.01318,335.81924 188.20342,337.51054 185.52684,336.48344 C 184.31728,336.01929 183.97045,335.00354 184.28643,332.85066 C 184.52766,331.207 184.63092,329.86218 184.51588,329.86218 C 184.40084,329.86218 182.50672,331.66218 180.30672,333.86218 C 175.78419,338.38471 172.69464,338.92684 168.81866,335.878 z M 180.91851,330.38356 C 183.74713,327.16194 186.03903,320.49645 184.75847,319.21589 C 184.4543,318.91172 182.61501,319.18774 180.67115,319.82927 C 174.31239,321.92785 170.00579,329.39654 173.27143,332.66218 C 175.32643,334.71718 177.74675,333.99599 180.91851,330.38356 z M 223.09114,336.63473 C 219.67447,334.82747 218.09961,331.26481 218.10813,325.36218 C 218.12461,313.95158 225.5739,305.86218 236.0651,305.86218 C 242.39846,305.86218 245.33393,310.45659 242.59754,316.08633 C 240.36792,320.67345 237.01548,322.79583 230.06575,324.02 C 224.36456,325.02424 224.07143,325.21736 224.07143,327.96903 C 224.07143,329.58074 225.00765,331.7984 226.18517,332.97592 C 228.00546,334.79621 229.01199,334.99657 233.43517,334.41907 C 238.25934,333.78922 238.46963,333.85156 236.8961,335.44495 C 234.72408,337.64437 226.36231,338.36503 223.09114,336.63473 z M 230.47741,321.59573 C 235.80109,318.5515 238.50834,314.73911 237.68263,311.44923 C 237.02107,308.81335 234.31813,308.06281 230.61062,309.48551 C 228.71364,310.21345 225.6192,315.95518 224.61401,320.61218 C 223.75891,324.57383 224.92678,324.76974 230.47741,321.59573 z M 283.40937,336.86355 C 280.01714,335.49562 279.78353,332.66479 282.11314,321.15612 C 283.78212,312.91108 284.02297,310.01422 283.15503,308.62444 C 282.27372,307.21323 282.34028,306.69624 283.45854,306.26713 C 284.24636,305.96481 285.19272,304.51504 285.56158,303.04542 C 286.46193,299.45811 287.91529,297.86218 290.28177,297.86218 C 292.02077,297.86218 292.16936,298.32306 291.57143,301.86218 C 290.92768,305.6725 291.01835,305.86218 293.48353,305.86218 C 297.34938,305.86218 296.80256,308.66409 292.86162,309.04882 C 289.66572,309.36082 289.64392,309.40119 287.83186,318.36218 C 285.42378,330.27063 285.71485,333.26362 289.32143,333.6786 C 292.31714,334.0233 292.72508,334.80853 290.87143,336.66218 C 289.49151,338.0421 286.53015,338.12201 283.40937,336.86355 z M 303.37973,336.85258 C 298.67886,334.95906 296.26971,327.58319 298.10253,320.69586 C 300.38141,312.13234 307.3445,305.87265 314.59892,305.86592 C 323.45111,305.8577 326.15163,312.98198 319.73037,319.40324 C 316.44966,322.68395 315.35507,323.13861 307.82143,324.34988 C 304.33374,324.91063 304.07143,325.19285 304.07143,328.38444 C 304.07143,333.06535 307.44069,335.31349 313.03853,334.36774 C 315.74092,333.91117 317.07143,334.05346 317.07143,334.79903 C 317.07143,337.37115 308.03272,338.72682 303.37973,336.85258 z M 311.34642,320.90274 C 318.14343,316.5922 319.4147,309.64272 313.51214,309.06366 C 309.90638,308.70991 307.51716,310.94679 305.52024,316.54598 C 302.65029,324.59308 303.97056,325.58037 311.34642,320.90274 z M 133.36285,333.61218 C 133.66706,331.82468 135.07594,324.14472 136.4937,316.54561 C 137.91145,308.94649 139.07143,301.68214 139.07143,300.4026 C 139.07143,298.11142 140.7367,296.86218 143.7909,296.86218 C 145.08256,296.86218 145.23796,297.75377 144.70595,302.11218 C 144.35349,304.99968 143.76181,308.48718 143.39111,309.86218 C 142.73252,312.30499 142.80201,312.28783 146.42906,309.11218 C 149.11561,306.75998 151.11643,305.86218 153.67196,305.86218 C 157.72162,305.86218 160.57912,307.13688 161.41552,309.31648 C 161.98872,310.81022 158.53319,334.30602 157.4927,335.98956 C 156.67568,337.31153 153.07436,337.0334 152.52662,335.60602 C 152.2615,334.91512 152.93238,329.42675 154.01747,323.40964 C 155.44897,315.47156 155.69347,312.11169 154.90845,311.1658 C 153.75744,309.77893 150.29344,309.45602 147.61062,310.48551 C 145.12906,311.43778 142.19705,318.03283 140.43843,326.6181 C 138.67918,335.20643 137.77078,336.86218 134.81814,336.86218 C 133.10546,336.86218 132.89118,336.38364 133.36285,333.61218 z M 197.65266,335.99362 C 197.35742,335.51591 198.00586,330.4543 199.09364,324.7456 C 200.18143,319.0369 201.07143,313.18285 201.07143,311.73661 C 201.07143,308.66762 203.21216,306.54078 205.77339,307.06515 C 207.05099,307.32671 207.49146,308.19762 207.29514,310.07402 L 207.01884,312.71477 L 210.44514,309.28847 C 214.16323,305.57038 217.43872,304.71649 216.88136,307.61062 C 216.69617,308.57226 214.87602,310.14475 212.8366,311.10504 C 208.16656,313.30399 206.22991,317.02576 204.44981,327.22246 C 203.67812,331.64278 202.4898,335.61314 201.80909,336.04548 C 200.16544,337.08941 198.31564,337.06633 197.65266,335.99362 z M 246.64723,335.98483 C 246.34901,335.50229 246.97745,330.21479 248.04377,324.23483 C 249.11009,318.25487 250.11504,312.01218 250.27698,310.36218 C 250.53229,307.76095 250.9702,307.36218 253.57143,307.36218 C 256.01957,307.36218 256.50807,307.73009 256.22702,309.36218 C 255.90725,311.21907 256.06592,311.1909 258.44438,308.96852 C 262.15726,305.49931 270.05244,304.84319 272.97058,307.76133 C 274.33292,309.12367 274.92949,310.69894 274.62406,312.12741 C 274.36126,313.35653 273.39012,319.18976 272.46598,325.09013 C 271.10808,333.75996 270.43116,335.93062 268.93753,336.40468 C 265.99977,337.33709 264.79868,335.95809 265.52867,332.4909 C 267.70316,322.1629 268.86856,313.80239 268.38922,311.9694 C 267.66923,309.21615 262.90614,309.13163 259.15108,311.80546 C 256.05848,314.00759 254.36842,318.7274 253.41864,327.81433 C 253.06185,331.2279 252.13063,334.66012 251.34925,335.4415 C 249.75013,337.04062 247.46308,337.3049 246.64723,335.98483 z M 128.3926,285.67345 C 125.37462,284.21437 123.50499,279.375 124.67452,276.04947 C 125.6558,273.25922 131.08523,269.05367 134.51202,268.4295 C 144.18615,266.66743 144.5811,266.46346 144.35551,263.34596 C 144.02564,258.78752 140.62621,256.5519 135.25043,257.35805 C 131.91538,257.85817 130.95552,257.7099 131.27737,256.74435 C 132.47666,253.14648 144.42034,253.44145 147.82757,257.15307 C 150.87623,260.4741 151.29716,264.51872 149.65244,274.68778 C 147.95277,285.19655 147.67638,285.86218 145.01241,285.86218 C 143.44179,285.86218 143.06538,285.14663 143.03975,282.11218 L 143.00807,278.36218 L 140.93594,281.14018 C 138.79268,284.01356 134.14454,286.91289 131.87109,286.7945 C 131.15627,286.75728 129.59096,286.2528 128.3926,285.67345 z M 138.85725,280.38895 C 141.66503,278.02635 145.08347,269.54089 143.76046,268.21788 C 142.7268,267.18422 136.71989,269.82479 133.8498,272.57451 C 131.93497,274.40904 131.07143,276.24014 131.07143,278.46594 C 131.07143,283.37633 134.34581,284.18507 138.85725,280.38895 z M 109.31622,284.70697 C 107.59037,282.98112 107.74025,279.42386 110.1945,263.86218 C 112.81147,247.26868 113.37792,245.62401 116.3311,246.04491 C 119.01275,246.42711 119.01809,246.24027 115.77872,265.36218 C 114.4743,273.06218 113.60901,280.14968 113.85586,281.11218 C 114.15659,282.28473 115.28361,282.86218 117.27139,282.86218 C 119.19755,282.86218 120.09376,283.3006 119.82659,284.11218 C 119.26762,285.81013 110.89329,286.28404 109.31622,284.70697 z M 208.0324,284.39993 C 203.33594,283.71622 195.91094,282.33856 191.5324,281.33846 L 183.57143,279.52011 L 192.7419,278.24594 C 200.8496,277.11943 221.4247,271.84224 222.70643,270.56051 C 222.97072,270.29622 221.84378,267.89348 220.20212,265.22108 C 212.994,253.48729 210.05903,236.24743 213.58664,226.36218 C 214.47648,223.86863 214.63818,222.23329 214.01601,222.01993 C 212.15116,221.38045 209.15769,214.12645 208.12027,207.73295 C 206.96006,200.58273 206.82552,184.32836 207.87906,178.59302 L 208.57143,174.82386 L 216.72338,182.87356 C 229.29403,195.28653 237.60635,206.98236 242.25798,218.80194 C 244.09994,223.48229 244.46281,226.49851 244.55102,237.86218 C 244.65053,250.6814 245.76223,257.38429 248.3242,260.61218 C 248.98538,261.44522 252.36097,261.86951 258.44387,261.88414 C 268.41117,261.90812 274.84651,263.9279 277.25783,267.78905 C 277.96991,268.92927 279.00678,269.87219 279.56198,269.88442 C 280.11718,269.89665 281.69643,270.7831 283.07143,271.85431 L 285.57143,273.80196 L 281.57143,272.7138 C 276.72895,271.39646 265.92641,272.25613 259.37569,274.48015 C 256.77125,275.36438 251.02484,277.82863 246.60589,279.95626 C 234.08541,285.9846 225.61797,286.96005 208.0324,284.39993 z"
         id="path2398" />
    </g>
  </g>
</svg>
