<?xml version="1.0" encoding="UTF-8" standalone="no"?>
<svg
        xmlns:dc="http://purl.org/dc/elements/1.1/"
        xmlns:cc="http://creativecommons.org/ns#"
        xmlns:rdf="http://www.w3.org/1999/02/22-rdf-syntax-ns#"
        xmlns="http://www.w3.org/2000/svg"
        xmlns:sodipodi="http://sodipodi.sourceforge.net/DTD/sodipodi-0.dtd"
        xmlns:inkscape="http://www.inkscape.org/namespaces/inkscape"
        width="24.922001"
        height="33.592999"
        version="1.1"
        id="svg16"
        sodipodi:docname="FamilySearch.svg"
        style="fill:none"
        inkscape:version="0.92.4 (5da689c313, 2019-01-14)"
        inkscape:export-filename="C:\Users\evan\Documents\GitHub\GeneaGrab\GeneaGrab\Assets\Providers\FamilySearch.png"
        inkscape:export-xdpi="1429.0988"
        inkscape:export-ydpi="1429.0988">
    <metadata
            id="metadata22">
        <rdf:RDF>
            <cc:Work
                    rdf:about="">
                <dc:format>image/svg+xml</dc:format>
                <dc:type
                        rdf:resource="http://purl.org/dc/dcmitype/StillImage"/>
            </cc:Work>
        </rdf:RDF>
    </metadata>
    <defs
            id="defs20"/>
    <sodipodi:namedview
            pagecolor="#ffffff"
            bordercolor="#666666"
            borderopacity="1"
            objecttolerance="10"
            gridtolerance="10"
            guidetolerance="10"
            inkscape:pageopacity="0"
            inkscape:pageshadow="2"
            inkscape:window-width="1920"
            inkscape:window-height="1017"
            id="namedview18"
            showgrid="false"
            inkscape:zoom="10.818182"
            inkscape:cx="28.828945"
            inkscape:cy="8.7762134"
            inkscape:window-x="-8"
            inkscape:window-y="-8"
            inkscape:window-maximized="1"
            inkscape:current-layer="svg16"/>
    <path
            d="m 11.796,27.246 c 1.68,-1.087 2.984,-2.682 3.527,-4.864 h -0.936 c -0.587,1.586 -1.742,2.578 -3.203,3.113 a 14.778,14.778 0 0 1 -0.57,-4.105 c 0,-3.062 0.92,-5.908 2.504,-8.289 h -1.934 a 16.244,16.244 0 0 0 -2.95,7.21 C 7.158,19.648 6.309,18.802 5.811,17.422 H 4.787 c 0.586,2.14 1.724,3.614 3.273,4.77 0,0.164 -0.01,0.328 -0.01,0.491 0,4.183 1.585,8.004 4.193,10.91 h 4.62 a 15.3,15.3 0 0 1 -5.067,-6.347 z"
            id="path6"
            inkscape:connector-curvature="0"
            style="fill:#9b947a"/>
    <path
            d="m 17.222,13.843 h 7.7 v -7.59 h -7.7 z m 5.89,-1.785 h -4.079 v -4.02 h 4.078 v 4.02 z M 12.689,23.227 h 8.156 v -8.039 h -8.156 z m 6.345,-1.794 H 14.5 v -4.468 h 4.533 v 4.468 z"
            id="path8"
            inkscape:connector-curvature="0"
            style="fill:#bab7b1"/>
    <path
            d="m 9.512,13.843 h 6.345 V 7.59 H 9.512 Z m 4.989,-1.337 H 10.878 V 8.936 H 14.5 v 3.57 z"
            id="path10"
            inkscape:connector-curvature="0"
            style="fill:#9b947a"/>
    <path
            d="M 3.168,8.935 H 8.156 V 4.02 H 3.168 V 8.936 Z M 6.8,7.59 H 4.533 V 5.356 H 6.8 Z"
            id="path12"
            inkscape:connector-curvature="0"
            style="fill:#bab7b1"/>
    <path
            d="m 9.512,6.253 h 6.345 V 0 H 9.512 Z M 14.501,4.916 H 10.878 V 1.336 H 14.5 v 3.58 z M 0,18.31 H 8.156 V 10.272 H 0 v 8.039 z M 6.344,16.525 H 1.811 v -4.467 h 4.533 z"
            id="path14"
            inkscape:connector-curvature="0"
            style="fill:#85b940"/>
</svg>
