<?xml version="1.0" encoding="UTF-8" standalone="no"?>
<!-- Created with Inkscape (http://www.inkscape.org/) -->

<svg
   xmlns:dc="http://purl.org/dc/elements/1.1/"
   xmlns:cc="http://creativecommons.org/ns#"
   xmlns:rdf="http://www.w3.org/1999/02/22-rdf-syntax-ns#"
   xmlns:svg="http://www.w3.org/2000/svg"
   xmlns="http://www.w3.org/2000/svg"
   xmlns:sodipodi="http://sodipodi.sourceforge.net/DTD/sodipodi-0.dtd"
   xmlns:inkscape="http://www.inkscape.org/namespaces/inkscape"
   version="1.1"
   id="svg23"
   width="400"
   height="400"
   viewBox="0 0 400 400"
   sodipodi:docname="Geneanet.svg"
   inkscape:version="0.92.4 (5da689c313, 2019-01-14)">
  <metadata
     id="metadata29">
    <rdf:RDF>
      <cc:Work
         rdf:about="">
        <dc:format>image/svg+xml</dc:format>
        <dc:type
           rdf:resource="http://purl.org/dc/dcmitype/StillImage" />
        <dc:title></dc:title>
      </cc:Work>
    </rdf:RDF>
  </metadata>
  <defs
     id="defs27" />
  <sodipodi:namedview
     pagecolor="#ffffff"
     bordercolor="#666666"
     borderopacity="1"
     objecttolerance="10"
     gridtolerance="10"
     guidetolerance="10"
     inkscape:pageopacity="0"
     inkscape:pageshadow="2"
     inkscape:window-width="1920"
     inkscape:window-height="1017"
     id="namedview25"
     showgrid="false"
     inkscape:zoom="0.90509668"
     inkscape:cx="486.65529"
     inkscape:cy="216.82983"
     inkscape:window-x="-8"
     inkscape:window-y="-8"
     inkscape:window-maximized="1"
     inkscape:current-layer="g33" />
  <g
     id="g33"
     transform="translate(388.13559,183.05085)">
    <path
       style="fill:#e7e6d9"
       d="m -388.13559,16.94915 v -200 h 200 200 v 200 200 h -200 -200 z"
       id="path49"
       inkscape:connector-curvature="0" />
    <path
       style="fill:#5e9e8c"
       d="m -388.13559,16.94915 v -200 h 200 200 v 200 200 h -200 -200 z m 214.52039,161.52207 c 29.16977,-1.92964 59.39686,-13.58532 84.47961,-32.57564 10.58408,-8.01328 28.47623,-26.85924 35.57373,-37.47012 23.80877,-35.59449 32.43827,-76.7304 24.9016,-118.70325 -8.7985,-49.00011 -40.85876,-91.36304 -86.48585,-114.27834 -23.05443,-11.57863 -45.784,-16.8586 -72.48948,-16.83894 -21.87707,0.0161 -37.53245,2.64618 -56.5,9.49193 -50.09301,18.07952 -88.17469,60.04639 -101.48458,111.83828 -5.28802,20.57692 -5.94948,50.6406 -1.5618,70.98443 12.32437,57.14293 53.49897,102.68882 109.04638,120.6233 15.20792,4.91014 38.56706,8.52537 50.5,7.81572 3.3,-0.19624 9.60917,-0.59556 14.02039,-0.88737 z m -39.52039,-33.23723 c -7.40463,-1.31149 -21.63556,-6.02069 -29.90017,-9.89436 -35.30027,-16.54541 -62.40399,-48.91168 -71.08781,-84.89048 -3.47602,-14.4018 -4.28012,-22.41553 -3.71261,-37 1.2865,-33.06162 13.85863,-61.34975 38.1224,-85.77794 19.61685,-19.74978 44.73643,-32.13958 73.57819,-36.29117 77.64145,-11.17602 148.09592,49.56058 147.98021,127.56911 -0.0485,32.70054 -12.12635,62.8447 -34.94946,87.22765 -16.96012,18.11926 -38.94156,31.26808 -61.59508,36.84483 -13.2251,3.2557 -13.40329,3.1705 -16.66999,-7.97089 -10.11019,-34.48177 -7.19704,-65.67426 7.45656,-79.84069 l 3.35049,-3.2391 6.61162,4.82012 c 3.63639,2.65107 9.24503,5.68366 12.46364,6.7391 6.74855,2.21297 19.46818,2.50766 26.00935,0.60259 5.92372,-1.72524 13.09185,-6.8536 17.94694,-12.83994 17.62126,-21.72706 8.58738,-64.13727 -15.00532,-70.44357 -7.96918,-2.13015 -8.46773,-4.19787 -2.09517,-8.68966 11.53615,-8.13143 11.13514,-17.4108 -1.10062,-25.46868 -5.77838,-3.80537 -43.00394,-18.89172 -51.24916,-20.76968 -10.35539,-2.35857 -20.15408,1.09153 -25.65842,9.03428 -1.57522,2.27305 -4.19152,4.81928 -5.814,5.65829 -2.74764,1.42087 -3.12935,1.38148 -5.56577,-0.57434 -8.60429,-6.90701 -12.66529,-9.09031 -16.90823,-9.09031 -4.14196,0 -4.74115,0.4204 -14.60907,10.25 -5.65948,5.6375 -12.62716,12.21526 -15.48374,14.61725 -7.20047,6.05461 -9.42753,10.78305 -9.33394,19.81752 0.0705,6.80725 -0.10099,7.37493 -3.23093,10.69363 -4.45529,4.72398 -5.13425,8.98478 -2.53764,15.92485 1.13479,3.033 2.72126,6.06064 3.52549,6.72809 2.52571,2.09615 1.65558,3.97318 -5.28898,11.40935 -8.82225,9.44677 -12.35159,15.971 -12.99835,24.02831 -0.62822,7.82619 0.74426,12.05344 5.50664,16.96057 8.75965,9.02589 21.32925,13.7459 36.69855,13.78067 15.97722,0.0361 23.48054,-3.51763 27.02552,-12.80002 0.93542,-2.44937 2.33779,-4.41022 3.15411,-4.41022 1.82408,0 6.70342,10.26926 9.02766,19 2.3544,8.84404 2.31285,32.1905 -0.0783,44 -2.52847,12.48766 -5.65725,23.39646 -6.95081,24.23469 -1.18999,0.77111 -2.50706,0.78107 -6.63378,0.0501 z m 19.10312,-86.4034 c -2.74709,-2.5593 -2.19771,-3.28076 1.82537,-2.39715 3.33519,0.73254 3.81172,1.6565 1.74074,3.37526 -1.005,0.83408 -1.87796,0.59465 -3.56611,-0.97811 z m 14.24466,0.58247 c -0.3242,-0.84485 -0.37923,-4.07109 -0.12229,-7.16944 0.3781,-4.55942 0.98368,-6.07764 3.1766,-7.96391 3.59875,-3.09552 7.8943,-3.05335 9.95899,0.0978 1.54392,2.35633 1.42703,2.63801 -3.94211,9.5 -5.48248,7.00685 -7.93282,8.50214 -9.07119,5.53559 z"
       id="path41"
       inkscape:connector-curvature="0" />
  </g>
</svg>
